  0
SECTION
  2
HEADER
  9
$ACADVER
  1
AC1015
  9
$ACADMAINTVER
 70
     6
  9
$DWGCODEPAGE
  3
ANSI_1252
  9
$INSBASE
 10
0.0
 20
0.0
 30
0.0
  9
$EXTMIN
 10
-101.0
 20
-31.0
 30
0.0
  9
$EXTMAX
 10
101.0
 20
31.0
 30
0.0
  9
$LIMMIN
 10
0.0
 20
0.0
  9
$LIMMAX
 10
420.0
 20
297.0
  9
$ORTHOMODE
 70
     0
  9
$REGENMODE
 70
     1
  9
$FILLMODE
 70
     1
  9
$QTEXTMODE
 70
     0
  9
$MIRRTEXT
 70
     1
  9
$LTSCALE
 40
1.0
  9
$ATTMODE
 70
     1
  9
$TEXTSIZE
 40
3.5
  9
$TRACEWID
 40
1.0
  9
$TEXTSTYLE
  7
Standard
  9
$CLAYER
  8
0
  9
$CELTYPE
  6
ByLayer
  9
$CECOLOR
 62
   256
  9
$CELTSCALE
 40
1.0
  9
$DISPSILH
 70
     0
  9
$DIMSCALE
 40
1.0
  9
$DIMASZ
 40
3.302
  9
$DIMEXO
 40
1.0
  9
$DIMDLI
 40
3.75
  9
$DIMRND
 40
0.0
  9
$DIMDLE
 40
0.0
  9
$DIMEXE
 40
1.0
  9
$DIMTP
 40
0.0
  9
$DIMTM
 40
0.0
  9
$DIMTXT
 40
3.5
  9
$DIMCEN
 40
2.5
  9
$DIMTSZ
 40
0.0
  9
$DIMTOL
 70
     0
  9
$DIMLIM
 70
     0
  9
$DIMTIH
 70
     1
  9
$DIMTOH
 70
     1
  9
$DIMSE1
 70
     0
  9
$DIMSE2
 70
     0
  9
$DIMTAD
 70
     1
  9
$DIMZIN
 70
     0
  9
$DIMBLK
  1

  9
$DIMASO
 70
     1
  9
$DIMSHO
 70
     1
  9
$DIMPOST
  1

  9
$DIMAPOST
  1

  9
$DIMALT
 70
     0
  9
$DIMALTD
 70
     3
  9
$DIMALTF
 40
0.0393700787
  9
$DIMLFAC
 40
1.0
  9
$DIMTOFL
 70
     1
  9
$DIMTVP
 40
0.0
  9
$DIMTIX
 70
     0
  9
$DIMSOXD
 70
     0
  9
$DIMSAH
 70
     0
  9
$DIMBLK1
  1

  9
$DIMBLK2
  1

  9
$DIMSTYLE
  2
ISO-25
  9
$DIMCLRD
 70
     0
  9
$DIMCLRE
 70
     0
  9
$DIMCLRT
 70
     0
  9
$DIMTFAC
 40
1.0
  9
$DIMGAP
 40
1.524
  9
$DIMJUST
 70
     0
  9
$DIMSD1
 70
     0
  9
$DIMSD2
 70
     0
  9
$DIMTOLJ
 70
     0
  9
$DIMTZIN
 70
     0
  9
$DIMALTZ
 70
     0
  9
$DIMALTTZ
 70
     0
  9
$DIMUPT
 70
     0
  9
$DIMDEC
 70
     2
  9
$DIMTDEC
 70
     2
  9
$DIMALTU
 70
     2
  9
$DIMALTTD
 70
     3
  9
$DIMTXSTY
  7
Standard
  9
$DIMAUNIT
 70
     0
  9
$DIMADEC
 70
     2
  9
$DIMALTRND
 40
0.0
  9
$DIMAZIN
 70
     0
  9
$DIMDSEP
 70
    44
  9
$DIMATFIT
 70
     3
  9
$DIMFRAC
 70
     0
  9
$DIMLDRBLK
  1

  9
$DIMLUNIT
 70
     2
  9
$DIMLWD
 70
    -2
  9
$DIMLWE
 70
    -2
  9
$DIMTMOVE
 70
     0
  9
$LUNITS
 70
     2
  9
$LUPREC
 70
     2
  9
$SKETCHINC
 40
1.0
  9
$FILLETRAD
 40
10.0
  9
$AUNITS
 70
     0
  9
$AUPREC
 70
     2
  9
$MENU
  1
.
  9
$ELEVATION
 40
0.0
  9
$PELEVATION
 40
0.0
  9
$THICKNESS
 40
0.0
  9
$LIMCHECK
 70
     0
  9
$CHAMFERA
 40
0.0
  9
$CHAMFERB
 40
0.0
  9
$CHAMFERC
 40
0.0
  9
$CHAMFERD
 40
0.0
  9
$SKPOLY
 70
     0
  9
$TDCREATE
 40
2457481.682706389
  9
$TDUCREATE
 40
2457481.599373056
  9
$TDUPDATE
 40
2457481.682808415
  9
$TDUUPDATE
 40
2457481.599475081
  9
$TDINDWG
 40
0.0000000116
  9
$TDUSRTIMER
 40
0.0000000116
  9
$USRTIMER
 70
     1
  9
$ANGBASE
 50
0.0
  9
$ANGDIR
 70
     0
  9
$PDMODE
 70
     0
  9
$PDSIZE
 40
-1.0
  9
$PLINEWID
 40
0.0
  9
$SPLFRAME
 70
     0
  9
$SPLINETYPE
 70
     6
  9
$SPLINESEGS
 70
     8
  9
$HANDSEED
  5
165
  9
$SURFTAB1
 70
     6
  9
$SURFTAB2
 70
     6
  9
$SURFTYPE
 70
     6
  9
$SURFU
 70
     6
  9
$SURFV
 70
     6
  9
$UCSBASE
  2

  9
$UCSNAME
  2

  9
$UCSORG
 10
0.0
 20
0.0
 30
0.0
  9
$UCSXDIR
 10
1.0
 20
0.0
 30
0.0
  9
$UCSYDIR
 10
0.0
 20
1.0
 30
0.0
  9
$UCSORTHOREF
  2

  9
$UCSORTHOVIEW
 70
     0
  9
$UCSORGTOP
 10
0.0
 20
0.0
 30
0.0
  9
$UCSORGBOTTOM
 10
0.0
 20
0.0
 30
0.0
  9
$UCSORGLEFT
 10
0.0
 20
0.0
 30
0.0
  9
$UCSORGRIGHT
 10
0.0
 20
0.0
 30
0.0
  9
$UCSORGFRONT
 10
0.0
 20
0.0
 30
0.0
  9
$UCSORGBACK
 10
0.0
 20
0.0
 30
0.0
  9
$PUCSBASE
  2

  9
$PUCSNAME
  2

  9
$PUCSORG
 10
0.0
 20
0.0
 30
0.0
  9
$PUCSXDIR
 10
1.0
 20
0.0
 30
0.0
  9
$PUCSYDIR
 10
0.0
 20
1.0
 30
0.0
  9
$PUCSORTHOREF
  2

  9
$PUCSORTHOVIEW
 70
     0
  9
$PUCSORGTOP
 10
0.0
 20
0.0
 30
0.0
  9
$PUCSORGBOTTOM
 10
0.0
 20
0.0
 30
0.0
  9
$PUCSORGLEFT
 10
0.0
 20
0.0
 30
0.0
  9
$PUCSORGRIGHT
 10
0.0
 20
0.0
 30
0.0
  9
$PUCSORGFRONT
 10
0.0
 20
0.0
 30
0.0
  9
$PUCSORGBACK
 10
0.0
 20
0.0
 30
0.0
  9
$USERI1
 70
     0
  9
$USERI2
 70
     0
  9
$USERI3
 70
     0
  9
$USERI4
 70
     0
  9
$USERI5
 70
     0
  9
$USERR1
 40
0.0
  9
$USERR2
 40
0.0
  9
$USERR3
 40
0.0
  9
$USERR4
 40
0.0
  9
$USERR5
 40
0.0
  9
$WORLDVIEW
 70
     1
  9
$SHADEDGE
 70
     3
  9
$SHADEDIF
 70
    70
  9
$TILEMODE
 70
     1
  9
$MAXACTVP
 70
    64
  9
$PINSBASE
 10
0.0
 20
0.0
 30
0.0
  9
$PLIMCHECK
 70
     0
  9
$PEXTMIN
 10
1.0000000000E+20
 20
1.0000000000E+20
 30
1.0000000000E+20
  9
$PEXTMAX
 10
-1.0000000000E+20
 20
-1.0000000000E+20
 30
-1.0000000000E+20
  9
$PLIMMIN
 10
0.0
 20
0.0
  9
$PLIMMAX
 10
420.0
 20
297.0
  9
$UNITMODE
 70
     0
  9
$VISRETAIN
 70
     1
  9
$PLINEGEN
 70
     0
  9
$PSLTSCALE
 70
     1
  9
$TREEDEPTH
 70
  3020
  9
$CMLSTYLE
  2
Standard
  9
$CMLJUST
 70
     0
  9
$CMLSCALE
 40
20.0
  9
$PROXYGRAPHICS
 70
     1
  9
$MEASUREMENT
 70
     1
  9
$CELWEIGHT
370
    -1
  9
$ENDCAPS
280
     0
  9
$JOINSTYLE
280
     0
  9
$LWDISPLAY
290
     1
  9
$INSUNITS
 70
     4
  9
$HYPERLINKBASE
  1

  9
$STYLESHEET
  1

  9
$XEDIT
290
     1
  9
$CEPSNTYPE
380
     0
  9
$PSTYLEMODE
290
     1
  9
$FINGERPRINTGUID
  2
{E6591CB8-1971-461D-A970-6F64ECF20D9E}
  9
$VERSIONGUID
  2
{FAEB1C32-E019-11D5-929B-00C0DF256EC4}
  9
$EXTNAMES
290
     1
  9
$PSVPSCALE
 40
0.0
  9
$OLESTARTUP
290
     0
  0
ENDSEC
  0
SECTION
  2
CLASSES
  0
CLASS
  1
ACDBDICTIONARYWDFLT
  2
AcDbDictionaryWithDefault
  3
ObjectDBX Classes
 90
        0
280
     0
281
     0
  0
CLASS
  1
VISUALSTYLE
  2
AcDbVisualStyle
  3
ObjectDBX Classes
 90
     4095
280
     0
281
     0
  0
CLASS
  1
MATERIAL
  2
AcDbMaterial
  3
ObjectDBX Classes
 90
     1153
280
     0
281
     0
  0
CLASS
  1
SCALE
  2
AcDbScale
  3
ObjectDBX Classes
 90
     1153
280
     0
281
     0
  0
CLASS
  1
TABLESTYLE
  2
AcDbTableStyle
  3
ObjectDBX Classes
 90
     4095
280
     0
281
     0
  0
CLASS
  1
MLEADERSTYLE
  2
AcDbMLeaderStyle
  3
ACDB_MLEADERSTYLE_CLASS
 90
     4095
280
     0
281
     0
  0
CLASS
  1
SUN
  2
AcDbSun
  3
SCENEOE
 90
     1153
280
     0
281
     0
  0
CLASS
  1
ACDBPLACEHOLDER
  2
AcDbPlaceHolder
  3
ObjectDBX Classes
 90
        0
280
     0
281
     0
  0
CLASS
  1
LAYOUT
  2
AcDbLayout
  3
ObjectDBX Classes
 90
        0
280
     0
281
     0
  0
ENDSEC
  0
SECTION
  2
TABLES
  0
TABLE
  2
VPORT
  5
8
330
0
100
AcDbSymbolTable
 70
     1
  0
VPORT
  5
29
330
8
100
AcDbSymbolTableRecord
100
AcDbViewportTableRecord
  2
*Active
 70
     0
 10
0.0
 20
0.0
 11
1.0
 21
1.0
 12
0.0
 22
0.0
 13
0.0
 23
0.0
 14
10.0
 24
10.0
 15
10.0
 25
10.0
 16
0.0
 26
0.0
 36
1.0
 17
0.0
 27
0.0
 37
0.0
 40
63.24
 41
3.2580645161
 42
50.0
 43
0.0
 44
0.0
 50
0.0
 51
0.0
 71
     0
 72
   100
 73
     1
 74
     3
 75
     0
 76
     0
 77
     0
 78
     0
281
     0
 65
     1
110
0.0
120
0.0
130
0.0
111
1.0
121
0.0
131
0.0
112
0.0
122
1.0
132
0.0
 79
     0
146
0.0
  0
ENDTAB
  0
TABLE
  2
LTYPE
  5
5
330
0
100
AcDbSymbolTable
 70
     6
  0
LTYPE
  5
14
330
5
100
AcDbSymbolTableRecord
100
AcDbLinetypeTableRecord
  2
ByBlock
 70
     0
  3

 72
    65
 73
     0
 40
0.0
  0
LTYPE
  5
15
330
5
100
AcDbSymbolTableRecord
100
AcDbLinetypeTableRecord
  2
ByLayer
 70
     0
  3

 72
    65
 73
     0
 40
0.0
  0
LTYPE
  5
16
330
5
100
AcDbSymbolTableRecord
100
AcDbLinetypeTableRecord
  2
Continuous
 70
     0
  3
Solid line
 72
    65
 73
     0
 40
0.0
  0
LTYPE
  5
6E
330
5
100
AcDbSymbolTableRecord
100
AcDbLinetypeTableRecord
  2
HIDDEN
 70
     0
  3
Hidden __ __ __ __ __ __ __ __ __ __ __ __ __ __
 72
    65
 73
     2
 40
1.905
 49
1.27
 74
     0
 49
-0.635
 74
     0
  0
LTYPE
  5
6F
330
5
100
AcDbSymbolTableRecord
100
AcDbLinetypeTableRecord
  2
PHANTOM
 70
     0
  3
Phantom ______  __  __  ______  __  __  ______
 72
    65
 73
     6
 40
12.7
 49
6.35
 74
     0
 49
-1.27
 74
     0
 49
1.27
 74
     0
 49
-1.27
 74
     0
 49
1.27
 74
     0
 49
-1.27
 74
     0
  0
LTYPE
  5
70
330
5
100
AcDbSymbolTableRecord
100
AcDbLinetypeTableRecord
  2
CENTER
 70
     0
  3
Center ____ _ ____ _ ____ _ ____ _ ____ _ ____
 72
    65
 73
     4
 40
10.16
 49
6.35
 74
     0
 49
-1.27
 74
     0
 49
1.27
 74
     0
 49
-1.27
 74
     0
  0
LTYPE
  5
71
330
5
100
AcDbSymbolTableRecord
100
AcDbLinetypeTableRecord
  2
CENTERX2
 70
     0
  3
Center (2x) ________  __  ________  __  _____
 72
    65
 73
     4
 40
20.32
 49
12.7
 74
     0
 49
-2.54
 74
     0
 49
2.54
 74
     0
 49
-2.54
 74
     0
  0
LTYPE
  5
72
330
5
100
AcDbSymbolTableRecord
100
AcDbLinetypeTableRecord
  2
DOT2
 70
     0
  3
Dot (.5x) ........................................
 72
    65
 73
     2
 40
0.635
 49
0.0
 74
     0
 49
-0.635
 74
     0
  0
ENDTAB
  0
TABLE
  2
LAYER
  5
2
330
0
100
AcDbSymbolTable
 70
     1
  0
LAYER
  5
10
330
2
100
AcDbSymbolTableRecord
100
AcDbLayerTableRecord
  2
0
 70
     0
 62
     7
  6
Continuous
370
    -3
390
F
  0
ENDTAB
  0
TABLE
  2
STYLE
  5
3
330
0
100
AcDbSymbolTable
 70
     1
  0
STYLE
  5
11
330
3
100
AcDbSymbolTableRecord
100
AcDbTextStyleTableRecord
  2
Standard
 70
     0
 40
0.0
 41
1.0
 50
0.0
 71
     0
 42
3.5
  3
txt
  4

  0
ENDTAB
  0
TABLE
  2
VIEW
  5
6
330
0
100
AcDbSymbolTable
 70
     0
  0
ENDTAB
  0
TABLE
  2
UCS
  5
7
330
0
100
AcDbSymbolTable
 70
     0
  0
ENDTAB
  0
TABLE
  2
APPID
  5
9
330
0
100
AcDbSymbolTable
 70
     1
  0
APPID
  5
12
330
9
100
AcDbSymbolTableRecord
100
AcDbRegAppTableRecord
  2
ACAD
 70
     0
  0
ENDTAB
  0
TABLE
  2
DIMSTYLE
  5
A
330
0
100
AcDbSymbolTable
 70
     1
100
AcDbDimStyleTable
  0
DIMSTYLE
105
27
330
A
100
AcDbSymbolTableRecord
100
AcDbDimStyleTableRecord
  2
ISO-25
 70
     0
 41
2.5
 42
0.625
 43
3.75
 44
1.25
 73
     0
 74
     0
 77
     1
 78
     8
140
2.5
141
2.5
143
0.0393700787
147
0.625
171
     3
172
     1
178
     0
271
     2
272
     2
274
     3
278
    44
283
     0
284
     8
340
11
  0
ENDTAB
  0
TABLE
  2
BLOCK_RECORD
  5
1
330
0
100
AcDbSymbolTable
 70
     1
  0
BLOCK_RECORD
  5
1F
330
1
100
AcDbSymbolTableRecord
100
AcDbBlockTableRecord
  2
*Model_Space
340
22
  0
BLOCK_RECORD
  5
1B
330
1
100
AcDbSymbolTableRecord
100
AcDbBlockTableRecord
  2
*Paper_Space
340
1E
  0
BLOCK_RECORD
  5
23
330
1
100
AcDbSymbolTableRecord
100
AcDbBlockTableRecord
  2
*Paper_Space0
340
26
  0
ENDTAB
  0
ENDSEC
  0
SECTION
  2
BLOCKS
  0
BLOCK
  5
20
330
1F
100
AcDbEntity
  8
0
100
AcDbBlockBegin
  2
*Model_Space
 70
     0
 10
0.0
 20
0.0
 30
0.0
  3
*Model_Space
  1

  0
ENDBLK
  5
21
330
1F
100
AcDbEntity
  8
0
100
AcDbBlockEnd
  0
BLOCK
  5
1C
330
1B
100
AcDbEntity
 67
     1
  8
0
100
AcDbBlockBegin
  2
*Paper_Space
 70
     0
 10
0.0
 20
0.0
 30
0.0
  3
*Paper_Space
  1

  0
ENDBLK
  5
1D
330
1B
100
AcDbEntity
 67
     1
  8
0
100
AcDbBlockEnd
  0
BLOCK
  5
24
330
23
100
AcDbEntity
  8
0
100
AcDbBlockBegin
  2
*Paper_Space0
 70
     0
 10
0.0
 20
0.0
 30
0.0
  3
*Paper_Space0
  1

  0
ENDBLK
  5
25
330
23
100
AcDbEntity
  8
0
100
AcDbBlockEnd
  0
ENDSEC
  0
SECTION
  2
ENTITIES
  0
SPLINE
  5
73
330
1F
100
AcDbEntity
  8
0
  6
Continuous
 62
     7
370
    15
100
AcDbSpline
210
0.0
220
0.0
230
1.0
 70
     8
 71
     3
 72
    11
 73
     7
 74
     0
 42
0.000000001
 43
0.00000001
 40
0.0
 40
0.0
 40
0.0
 40
0.0
 40
0.2324810457261473
 40
0.4670474483812591
 40
0.7193745914199533
 40
1.0
 40
1.0
 40
1.0
 40
1.0
 10
76.29132701238387
 20
-17.35401122291022
 30
0.0
 10
76.14421783186276
 20
-17.21594104259273
 30
0.0
 10
75.84867990023814
 20
-16.93856219128292
 30
0.0
 10
75.55920923096453
 20
-16.37741844237386
 30
0.0
 10
75.40077861613524
 20
-15.73009006256623
 30
0.0
 10
75.38102657184076
 20
-15.26994758453455
 30
0.0
 10
75.37062616099068
 20
-15.02766021671827
 30
0.0
  0
SPLINE
  5
74
330
1F
100
AcDbEntity
  8
0
  6
Continuous
 62
     7
370
    15
100
AcDbSpline
210
0.0
220
0.0
230
1.0
 70
     8
 71
     3
 72
    11
 73
     7
 74
     0
 42
0.000000001
 43
0.00000001
 40
0.0
 40
0.0
 40
0.0
 40
0.0
 40
0.2462908217796655
 40
0.4955870151864912
 40
0.744883208593322
 40
1.0
 40
1.0
 40
1.0
 40
1.0
 10
78.28735023219812
 20
-18.03575154798762
 30
0.0
 10
78.11085725692597
 20
-18.02756386892026
 30
0.0
 10
77.75571764520808
 20
-18.01108860036996
 30
0.0
 10
77.23629440238507
 20
-17.87917779004329
 30
0.0
 10
76.73397502158417
 20
-17.67251320805304
 30
0.0
 10
76.44000708177062
 20
-17.46099215644341
 30
0.0
 10
76.29132701238387
 20
-17.35401122291022
 30
0.0
  0
SPLINE
  5
75
330
1F
100
AcDbEntity
  8
0
  6
Continuous
 62
     7
370
    15
100
AcDbSpline
210
0.0
220
0.0
230
1.0
 70
     8
 71
     3
 72
    11
 73
     7
 74
     0
 42
0.000000001
 43
0.00000001
 40
0.0
 40
0.0
 40
0.0
 40
0.0
 40
0.2508006688250503
 40
0.5009894343249505
 40
0.7495390929053262
 40
1.0
 40
1.0
 40
1.0
 40
1.0
 10
80.22714744582039
 20
-17.35401122291022
 30
0.0
 10
80.0785496626229
 20
-17.44530879507671
 30
0.0
 10
79.78171664501248
 20
-17.62768119164652
 30
0.0
 10
79.31365228338002
 20
-17.85982202089111
 30
0.0
 10
78.8088962330078
 20
-18.00625031693257
 30
0.0
 10
78.4616422355637
 20
-18.0258927269932
 30
0.0
 10
78.28735023219811
 20
-18.03575154798762
 30
0.0
  0
SPLINE
  5
76
330
1F
100
AcDbEntity
  8
0
  6
Continuous
 62
     7
370
    15
100
AcDbSpline
210
0.0
220
0.0
230
1.0
 70
     8
 71
     3
 72
    11
 73
     7
 74
     0
 42
0.000000001
 43
0.00000001
 40
0.0
 40
0.0
 40
0.0
 40
0.0
 40
0.2837436837420688
 40
0.5395685287509465
 40
0.7741831754772163
 40
1.0
 40
1.0
 40
1.0
 40
1.0
 10
81.10567879256962
 20
-15.02766021671827
 30
0.0
 10
81.09641651921721
 20
-15.2702647030372
 30
0.0
 10
81.07880332994816
 20
-15.73160271072471
 30
0.0
 10
80.90597619467607
 20
-16.37328544937459
 30
0.0
 10
80.63622748809247
 20
-16.9307093622003
 30
0.0
 10
80.36175930087445
 20
-17.21471953710342
 30
0.0
 10
80.22714744582039
 20
-17.35401122291022
 30
0.0
  0
SPLINE
  5
77
330
1F
100
AcDbEntity
  8
0
  6
Continuous
 62
     7
370
    15
100
AcDbSpline
210
0.0
220
0.0
230
1.0
 70
     8
 71
     3
 72
    11
 73
     7
 74
     0
 42
0.000000001
 43
0.00000001
 40
0.0
 40
0.0
 40
0.0
 40
0.0
 40
0.2183359612505137
 40
0.450938617010072
 40
0.7099497930056711
 40
0.9999999999999999
 40
0.9999999999999999
 40
0.9999999999999999
 40
0.9999999999999999
 10
80.22714744582039
 20
-12.74347871517028
 30
0.0
 10
80.36221326163405
 20
-12.87034899421765
 30
0.0
 10
80.64117047894037
 20
-13.13237961824141
 30
0.0
 10
80.90794969402054
 20
-13.67922735713628
 30
0.0
 10
81.07914840312871
 20
-14.31891273934415
 30
0.0
 10
81.09650820662989
 20
-14.78267211862404
 30
0.0
 10
81.10567879256962
 20
-15.02766021671827
 30
0.0
  0
SPLINE
  5
78
330
1F
100
AcDbEntity
  8
0
  6
Continuous
 62
     7
370
    15
100
AcDbSpline
210
0.0
220
0.0
230
1.0
 70
     8
 71
     3
 72
    11
 73
     7
 74
     0
 42
0.000000001
 43
0.00000001
 40
0.0
 40
0.0
 40
0.0
 40
0.0
 40
0.2483754809579004
 40
0.4877932828842801
 40
0.7334689501713271
 40
1.0
 40
1.0
 40
1.0
 40
1.0
 10
78.33654798761606
 20
-12.01254063467492
 30
0.0
 10
78.50860686909378
 20
-12.01951331993542
 30
0.0
 10
78.84651931649692
 20
-12.03320722007653
 30
0.0
 10
79.33655838441273
 20
-12.17704850227679
 30
0.0
 10
79.80790229191717
 20
-12.40348760367052
 30
0.0
 10
80.08365645854765
 20
-12.62711324308586
 30
0.0
 10
80.22714744582039
 20
-12.74347871517028
 30
0.0
  0
SPLINE
  5
7A
330
1F
100
AcDbEntity
  8
0
  6
Continuous
 62
     7
370
    15
100
AcDbSpline
210
0.0
220
0.0
230
1.0
 70
     8
 71
     3
 72
    11
 73
     7
 74
     0
 42
0.000000001
 43
0.00000001
 40
0.0
 40
0.0
 40
0.0
 40
0.0
 40
0.2658986932494559
 40
0.5113257619643448
 40
0.7551169955071713
 40
1.0
 40
1.0
 40
1.0
 40
1.0
 10
76.24212925696592
 20
-12.84187422600619
 30
0.0
 10
76.39018631204284
 20
-12.72068383550789
 30
0.0
 10
76.67490146267495
 20
-12.48763354102537
 30
0.0
 10
77.16452931825317
 20
-12.24825025915485
 30
0.0
 10
77.66597946566604
 20
-12.07990859949382
 30
0.0
 10
78.01437018389811
 20
-12.03503004473726
 30
0.0
 10
78.18895472136221
 20
-12.01254063467492
 30
0.0
  0
SPLINE
  5
7B
330
1F
100
AcDbEntity
  8
0
  6
Continuous
 62
     7
370
    15
100
AcDbSpline
210
0.0
220
0.0
230
1.0
 70
     8
 71
     3
 72
    11
 73
     7
 74
     0
 42
0.000000001
 43
0.00000001
 40
0.0
 40
0.0
 40
0.0
 40
0.0
 40
0.2636500947832202
 40
0.5119489029510922
 40
0.7564036153366547
 40
1.0
 40
1.0
 40
1.0
 40
1.0
 10
75.37062616099068
 20
-14.92926470588235
 30
0.0
 10
75.3811179554642
 20
-14.72419674983188
 30
0.0
 10
75.40149064933762
 20
-14.32600112158154
 30
0.0
 10
75.56947419172201
 20
-13.75853659790097
 30
0.0
 10
75.8399628797151
 20
-13.24685652628754
 30
0.0
 10
76.10823106421581
 20
-12.9767099586056
 30
0.0
 10
76.24212925696594
 20
-12.84187422600619
 30
0.0
  0
SPLINE
  5
7D
330
1F
100
AcDbEntity
  8
0
  6
Continuous
 62
     7
370
    15
100
AcDbSpline
210
0.0
220
0.0
230
1.0
 70
     8
 71
     3
 72
    15
 73
    11
 74
     0
 42
0.000000001
 43
0.00000001
 40
0.0
 40
0.0
 40
0.0
 40
0.0
 40
0.1237011655823559
 40
0.2454041739735682
 40
0.3651738708479896
 40
0.486099201165908
 40
0.6084765737543083
 40
0.7344904971986367
 40
0.8643064896988756
 40
1.0
 40
1.0
 40
1.0
 40
1.0
 10
22.89770588235292
 20
-14.92926470588235
 30
0.0
 10
22.61966356418054
 20
-14.66586582010534
 30
0.0
 10
22.06807017296579
 20
-14.14332275686612
 30
0.0
 10
21.35766439354669
 20
-13.2600305414337
 30
0.0
 10
20.76297629850183
 20
-12.30741665693358
 30
0.0
 10
20.27275588813849
 20
-11.29359880264257
 30
0.0
 10
19.91258889986042
 20
-10.20690262481889
 30
0.0
 10
19.64191325134622
 20
-9.067107018442066
 30
0.0
 10
19.48834248202213
 20
-7.863000686657429
 30
0.0
 10
19.46552453448045
 20
-7.041642490242977
 30
0.0
 10
19.45386300309596
 20
-6.621872291021675
 30
0.0
  0
SPLINE
  5
7E
330
1F
100
AcDbEntity
  8
0
  6
Continuous
 62
     7
370
    15
100
AcDbSpline
210
0.0
220
0.0
230
1.0
 70
     8
 71
     3
 72
    15
 73
    11
 74
     0
 42
0.000000001
 43
0.00000001
 40
0.0
 40
0.0
 40
0.0
 40
0.0
 40
0.12750652638792
 40
0.2519334839337515
 40
0.3749901856930891
 40
0.4971032169019776
 40
0.6194159297673966
 40
0.7430661374514643
 40
0.8698147878100166
 40
1.0
 40
1.0
 40
1.0
 40
1.0
 10
30.96613777089781
 20
-17.98655379256967
 30
0.0
 10
30.59083035718136
 20
-17.97692443509647
 30
0.0
 10
29.8492800462891
 20
-17.95789829074926
 30
0.0
 10
28.75366761741454
 20
-17.81156196723686
 30
0.0
 10
27.68902462299739
 20
-17.58322183931286
 30
0.0
 10
26.65823643997518
 20
-17.25040226363177
 30
0.0
 10
25.66229595544059
 20
-16.82019651061802
 30
0.0
 10
24.70252774580062
 20
-16.28682252796422
 30
0.0
 10
23.76933576254588
 20
-15.66384845996982
 30
0.0
 10
23.19082840797555
 20
-15.17629965749714
 30
0.0
 10
22.89770588235292
 20
-14.92926470588236
 30
0.0
  0
SPLINE
  5
7F
330
1F
100
AcDbEntity
  8
0
  6
Continuous
 62
     7
370
    15
100
AcDbSpline
210
0.0
220
0.0
230
1.0
 70
     8
 71
     3
 72
    15
 73
    11
 74
     0
 42
0.000000001
 43
0.00000001
 40
0.0
 40
0.0
 40
0.0
 40
0.0
 40
0.127443794851626
 40
0.2516190888181004
 40
0.3747210874226707
 40
0.4972387947886834
 40
0.6194432016372268
 40
0.7440688894902624
 40
0.8703867606993492
 40
1.0
 40
1.0
 40
1.0
 40
1.0
 10
38.97834365325075
 20
-15.16822523219814
 30
0.0
 10
38.69218851017719
 20
-15.40137637551239
 30
0.0
 10
38.12721713244468
 20
-15.86169912646256
 30
0.0
 10
37.2101536721072
 20
-16.4444025126306
 30
0.0
 10
36.26167248421201
 20
-16.9437685368157
 30
0.0
 10
35.26583378243028
 20
-17.32559253594704
 30
0.0
 10
34.23825147036622
 20
-17.62423809231077
 30
0.0
 10
33.17736815279737
 20
-17.83189013195362
 30
0.0
 10
32.08224833647522
 20
-17.96328564303964
 30
0.0
 10
31.34135454140247
 20
-17.97873144934351
 30
0.0
 10
30.96613777089781
 20
-17.98655379256966
 30
0.0
  0
SPLINE
  5
80
330
1F
100
AcDbEntity
  8
0
  6
Continuous
 62
     7
370
    15
100
AcDbSpline
210
0.0
220
0.0
230
1.0
 70
     8
 71
     3
 72
    15
 73
    11
 74
     0
 42
0.000000001
 43
0.00000001
 40
0.0
 40
0.0
 40
0.0
 40
0.0
 40
0.150022026342606
 40
0.2903179324763329
 40
0.421323454676776
 40
0.5450739429198905
 40
0.6625633855376254
 40
0.7762710065790368
 40
0.8885008458894356
 40
1.0
 40
1.0
 40
1.0
 40
1.0
 10
42.42921478328169
 20
-6.136922987616101
 30
0.0
 10
42.41849869589451
 20
-6.636376494413717
 30
0.0
 10
42.39776125879724
 20
-7.602903297154006
 30
0.0
 10
42.2368096037759
 20
-8.998274398041682
 30
0.0
 10
41.96652625727132
 20
-10.28753041400543
 30
0.0
 10
41.57743584182568
 20
-11.46626671429884
 30
0.0
 10
41.09343516817759
 20
-12.54717961936812
 30
0.0
 10
40.49546957671784
 20
-13.52393543081962
 30
0.0
 10
39.80453475296746
 20
-14.41553561166866
 30
0.0
 10
39.25314041310047
 20
-14.91787556253341
 30
0.0
 10
38.97834365325075
 20
-15.16822523219814
 30
0.0
  0
SPLINE
  5
84
330
1F
100
AcDbEntity
  8
0
  6
Continuous
 62
     7
370
    15
100
AcDbSpline
210
0.0
220
0.0
230
1.0
 70
     8
 71
     3
 72
    11
 73
     7
 74
     0
 42
0.000000001
 43
0.00000001
 40
0.0
 40
0.0
 40
0.0
 40
0.0
 40
0.1987532805396801
 40
0.3691132352879814
 40
0.630886764712043
 40
1.0
 40
1.0
 40
1.0
 40
1.0
 10
37.37590247678016
 20
-7.493375386996907
 30
0.0
 10
37.3760802522105
 20
-7.476988622939681
 30
0.0
 10
37.37641040658113
 20
-7.446556061119121
 30
0.0
 10
37.3738307565711
 20
-7.39432001134715
 30
0.0
 10
37.39081130886284
 20
-7.329401456937755
 30
0.0
 10
37.41244373677129
 20
-7.28209340582864
 30
0.0
 10
37.42510023219811
 20
-7.254414860681117
 30
0.0
  0
SPLINE
  5
85
330
1F
100
AcDbEntity
  8
0
  6
Continuous
 62
     7
370
    15
100
AcDbSpline
210
0.0
220
0.0
230
1.0
 70
     8
 71
     3
 72
    11
 73
     7
 74
     0
 42
0.000000001
 43
0.00000001
 40
0.0
 40
0.0
 40
0.0
 40
0.0
 40
0.2546094609415032
 40
0.5019435982782606
 40
0.7485024259122822
 40
1.0
 40
1.0
 40
1.0
 40
1.0
 10
35.62586803405571
 20
-11.86494736842105
 30
0.0
 10
35.86921320767163
 20
-11.53941168589371
 30
0.0
 10
36.34895010203822
 20
-10.89764232174081
 30
0.0
 10
36.86590363351236
 20
-9.816578094634561
 30
0.0
 10
37.23216275991979
 20
-8.681102144718931
 30
0.0
 10
37.32767354163056
 20
-7.891892915936137
 30
0.0
 10
37.37590247678016
 20
-7.493375386996907
 30
0.0
  0
SPLINE
  5
86
330
1F
100
AcDbEntity
  8
0
  6
Continuous
 62
     7
370
    15
100
AcDbSpline
210
0.0
220
0.0
230
1.0
 70
     8
 71
     3
 72
    15
 73
    11
 74
     0
 42
0.000000001
 43
0.00000001
 40
0.0
 40
0.0
 40
0.0
 40
0.0
 40
0.142855256910548
 40
0.2773942957421435
 40
0.4061946783736493
 40
0.5277135053752692
 40
0.6464540956875565
 40
0.7626489751035506
 40
0.8807582818554198
 40
0.9999999999999999
 40
0.9999999999999999
 40
0.9999999999999999
 40
0.9999999999999999
 10
30.96613777089781
 20
-13.8609705882353
 30
0.0
 10
31.21711220215765
 20
-13.85647399074038
 30
0.0
 10
31.70445076507944
 20
-13.84774256200395
 30
0.0
 10
32.4130998430086
 20
-13.75421818243242
 30
0.0
 10
33.07262240605907
 20
-13.60173968152982
 30
0.0
 10
33.68580714548455
 20
-13.38877375552015
 30
0.0
 10
34.25280654777597
 20
-13.11842054973967
 30
0.0
 10
34.76423192144058
 20
-12.76494025823007
 30
0.0
 10
35.232859534162
 20
-12.35376387709297
 30
0.0
 10
35.49444918247421
 20
-12.0284036402857
 30
0.0
 10
35.62586803405571
 20
-11.86494736842105
 30
0.0
  0
SPLINE
  5
87
330
1F
100
AcDbEntity
  8
0
  6
Continuous
 62
     7
370
    15
100
AcDbSpline
210
0.0
220
0.0
230
1.0
 70
     8
 71
     3
 72
    15
 73
    11
 74
     0
 42
0.000000001
 43
0.00000001
 40
0.0
 40
0.0
 40
0.0
 40
0.0
 40
0.1305556177421909
 40
0.2563213077672508
 40
0.3812682668049635
 40
0.5026878629086572
 40
0.6249262750595664
 40
0.7478766780945659
 40
0.8724546076508473
 40
1.0
 40
1.0
 40
1.0
 40
1.0
 10
26.39777476780183
 20
-11.96334287925697
 30
0.0
 10
26.56168941691862
 20
-12.1114935504012
 30
0.0
 10
26.88350488491932
 20
-12.4023594237432
 30
0.0
 10
27.40382952690254
 20
-12.78512680051105
 30
0.0
 10
27.94056569303665
 20
-13.11549265783249
 30
0.0
 10
28.5034213816321
 20
-13.38644064827074
 30
0.0
 10
29.08794291863592
 20
-13.59643629209548
 30
0.0
 10
29.69441094599807
 20
-13.75266444152403
 30
0.0
 10
30.32360320020273
 20
-13.84673103766169
 30
0.0
 10
30.75028557965761
 20
-13.85618697295018
 30
0.0
 10
30.96613777089781
 20
-13.8609705882353
 30
0.0
  0
SPLINE
  5
88
330
1F
100
AcDbEntity
  8
0
  6
Continuous
 62
     7
370
    15
100
AcDbSpline
210
0.0
220
0.0
230
1.0
 70
     8
 71
     3
 72
    15
 73
    11
 74
     0
 42
0.000000001
 43
0.00000001
 40
0.0
 40
0.0
 40
0.0
 40
0.0
 40
0.1623577394798195
 40
0.3112896139782619
 40
0.4484733947148385
 40
0.574542269934132
 40
0.6907564600780031
 40
0.7989832471215159
 40
0.9011736447129237
 40
1.0
 40
1.0
 40
1.0
 40
1.0
 10
24.45797755417954
 20
-5.35678715170279
 30
0.0
 10
24.46239116400376
 20
-5.738839459969176
 30
0.0
 10
24.47085340856835
 20
-6.471350986310861
 30
0.0
 10
24.56180928599798
 20
-7.523752990837868
 30
0.0
 10
24.71593858715001
 20
-8.481853062848318
 30
0.0
 10
24.92144899225516
 20
-9.351983058289445
 30
0.0
 10
25.19752168487243
 20
-10.13080425807558
 30
0.0
 10
25.52652271614537
 20
-10.82657262484558
 30
0.0
 10
25.91997093177454
 20
-11.44287943363529
 30
0.0
 10
26.24029370396932
 20
-11.79180148313943
 30
0.0
 10
26.39777476780184
 20
-11.96334287925697
 30
0.0
  0
SPLINE
  5
8C
330
1F
100
AcDbEntity
  8
0
  6
Continuous
 62
     7
370
    15
100
AcDbSpline
210
0.0
220
0.0
230
1.0
 70
     8
 71
     3
 72
    11
 73
     7
 74
     0
 42
0.000000001
 43
0.00000001
 40
0.0
 40
0.0
 40
0.0
 40
0.0
 40
0.232481045726141
 40
0.4670474483812566
 40
0.719374591419952
 40
1.0
 40
1.0
 40
1.0
 40
1.0
 10
-12.77066679566566
 20
-17.35401122291022
 30
0.0
 10
-12.91777597618675
 20
-17.21594104259273
 30
0.0
 10
-13.21331390781137
 20
-16.93856219128291
 30
0.0
 10
-13.502784577085
 20
-16.37741844237386
 30
0.0
 10
-13.66121519191428
 20
-15.73009006256623
 30
0.0
 10
-13.68096723620877
 20
-15.26994758453455
 30
0.0
 10
-13.69136764705885
 20
-15.02766021671827
 30
0.0
  0
SPLINE
  5
8D
330
1F
100
AcDbEntity
  8
0
  6
Continuous
 62
     7
370
    15
100
AcDbSpline
210
0.0
220
0.0
230
1.0
 70
     8
 71
     3
 72
    11
 73
     7
 74
     0
 42
0.000000001
 43
0.00000001
 40
0.0
 40
0.0
 40
0.0
 40
0.0
 40
0.2462908217796639
 40
0.4955870151864943
 40
0.7448832085933236
 40
1.0
 40
1.0
 40
1.0
 40
1.0
 10
-10.77464357585141
 20
-18.03575154798762
 30
0.0
 10
-10.95113655112357
 20
-18.02756386892026
 30
0.0
 10
-11.30627616284146
 20
-18.01108860036995
 30
0.0
 10
-11.82569940566444
 20
-17.87917779004329
 30
0.0
 10
-12.3280187864654
 20
-17.67251320805304
 30
0.0
 10
-12.6219867262789
 20
-17.46099215644341
 30
0.0
 10
-12.77066679566566
 20
-17.35401122291022
 30
0.0
  0
SPLINE
  5
8E
330
1F
100
AcDbEntity
  8
0
  6
Continuous
 62
     7
370
    15
100
AcDbSpline
210
0.0
220
0.0
230
1.0
 70
     8
 71
     3
 72
    11
 73
     7
 74
     0
 42
0.000000001
 43
0.00000001
 40
0.0
 40
0.0
 40
0.0
 40
0.0
 40
0.2508006688250545
 40
0.5009894343249532
 40
0.7495390929053211
 40
1.0
 40
1.0
 40
1.0
 40
1.0
 10
-8.834846362229115
 20
-17.35401122291022
 30
0.0
 10
-8.983444145426606
 20
-17.44530879507671
 30
0.0
 10
-9.28027716303703
 20
-17.62768119164652
 30
0.0
 10
-9.7483415246695
 20
-17.8598220208911
 30
0.0
 10
-10.25309757504173
 20
-18.00625031693257
 30
0.0
 10
-10.60035157248582
 20
-18.0258927269932
 30
0.0
 10
-10.77464357585141
 20
-18.03575154798762
 30
0.0
  0
SPLINE
  5
8F
330
1F
100
AcDbEntity
  8
0
  6
Continuous
 62
     7
370
    15
100
AcDbSpline
210
0.0
220
0.0
230
1.0
 70
     8
 71
     3
 72
    11
 73
     7
 74
     0
 42
0.000000001
 43
0.00000001
 40
0.0
 40
0.0
 40
0.0
 40
0.0
 40
0.2837436837420694
 40
0.5395685287509494
 40
0.7741831754772225
 40
1.0
 40
1.0
 40
1.0
 40
1.0
 10
-7.956315015479901
 20
-15.02766021671827
 30
0.0
 10
-7.965577288832304
 20
-15.2702647030372
 30
0.0
 10
-7.983190478101347
 20
-15.73160271072471
 30
0.0
 10
-8.156017613373463
 20
-16.37328544937459
 30
0.0
 10
-8.425766319957056
 20
-16.93070936220029
 30
0.0
 10
-8.700234507175074
 20
-17.21471953710342
 30
0.0
 10
-8.834846362229117
 20
-17.35401122291022
 30
0.0
  0
SPLINE
  5
90
330
1F
100
AcDbEntity
  8
0
  6
Continuous
 62
     7
370
    15
100
AcDbSpline
210
0.0
220
0.0
230
1.0
 70
     8
 71
     3
 72
    11
 73
     7
 74
     0
 42
0.000000001
 43
0.00000001
 40
0.0
 40
0.0
 40
0.0
 40
0.0
 40
0.2183359612505071
 40
0.4509386170100689
 40
0.7099497930056703
 40
1.0
 40
1.0
 40
1.0
 40
1.0
 10
-8.834846362229115
 20
-12.74347871517028
 30
0.0
 10
-8.699780546415472
 20
-12.87034899421765
 30
0.0
 10
-8.420823329109158
 20
-13.13237961824142
 30
0.0
 10
-8.154044114029018
 20
-13.67922735713628
 30
0.0
 10
-7.982845404920756
 20
-14.31891273934416
 30
0.0
 10
-7.965485601419613
 20
-14.78267211862404
 30
0.0
 10
-7.956315015479901
 20
-15.02766021671827
 30
0.0
  0
SPLINE
  5
91
330
1F
100
AcDbEntity
  8
0
  6
Continuous
 62
     7
370
    15
100
AcDbSpline
210
0.0
220
0.0
230
1.0
 70
     8
 71
     3
 72
    11
 73
     7
 74
     0
 42
0.000000001
 43
0.00000001
 40
0.0
 40
0.0
 40
0.0
 40
0.0
 40
0.2483754809578993
 40
0.4877932828842715
 40
0.7334689501713174
 40
1.0
 40
1.0
 40
1.0
 40
1.0
 10
-10.72544582043346
 20
-12.01254063467492
 30
0.0
 10
-10.55338693895572
 20
-12.01951331993542
 30
0.0
 10
-10.21547449155257
 20
-12.03320722007652
 30
0.0
 10
-9.725435423636858
 20
-12.17704850227678
 30
0.0
 10
-9.254091516132325
 20
-12.40348760367054
 30
0.0
 10
-8.97833734950184
 20
-12.62711324308587
 30
0.0
 10
-8.834846362229115
 20
-12.74347871517028
 30
0.0
  0
SPLINE
  5
93
330
1F
100
AcDbEntity
  8
0
  6
Continuous
 62
     7
370
    15
100
AcDbSpline
210
0.0
220
0.0
230
1.0
 70
     8
 71
     3
 72
    11
 73
     7
 74
     0
 42
0.000000001
 43
0.00000001
 40
0.0
 40
0.0
 40
0.0
 40
0.0
 40
0.2658986932494666
 40
0.5113257619643443
 40
0.7551169955071771
 40
1.0
 40
1.0
 40
1.0
 40
1.0
 10
-12.81986455108361
 20
-12.84187422600619
 30
0.0
 10
-12.67180749600668
 20
-12.72068383550789
 30
0.0
 10
-12.38709234537456
 20
-12.48763354102539
 30
0.0
 10
-11.89746448979639
 20
-12.24825025915484
 30
0.0
 10
-11.39601434238347
 20
-12.07990859949382
 30
0.0
 10
-11.04762362415142
 20
-12.03503004473726
 30
0.0
 10
-10.87303908668732
 20
-12.01254063467492
 30
0.0
  0
SPLINE
  5
94
330
1F
100
AcDbEntity
  8
0
  6
Continuous
 62
     7
370
    15
100
AcDbSpline
210
0.0
220
0.0
230
1.0
 70
     8
 71
     3
 72
    11
 73
     7
 74
     0
 42
0.000000001
 43
0.00000001
 40
0.0
 40
0.0
 40
0.0
 40
0.0
 40
0.2636500947832212
 40
0.5119489029510942
 40
0.7564036153366576
 40
1.0
 40
1.0
 40
1.0
 40
1.0
 10
-13.69136764705885
 20
-14.92926470588235
 30
0.0
 10
-13.68087585258532
 20
-14.72419674983188
 30
0.0
 10
-13.66050315871192
 20
-14.32600112158154
 30
0.0
 10
-13.49251961632752
 20
-13.75853659790097
 30
0.0
 10
-13.22203092833443
 20
-13.24685652628755
 30
0.0
 10
-12.95376274383374
 20
-12.9767099586056
 30
0.0
 10
-12.81986455108361
 20
-12.84187422600619
 30
0.0
  0
SPLINE
  5
96
330
1F
100
AcDbEntity
  8
0
  6
Continuous
 62
     7
370
    15
100
AcDbSpline
210
0.0
220
0.0
230
1.0
 70
     8
 71
     3
 72
    11
 73
     7
 74
     0
 42
0.000000001
 43
0.00000001
 40
0.0
 40
0.0
 40
0.0
 40
0.0
 40
0.232481045726144
 40
0.4670474483812589
 40
0.7193745914199529
 40
0.9999999999999999
 40
0.9999999999999999
 40
0.9999999999999999
 40
0.9999999999999999
 10
-53.25339125386998
 20
-17.35401122291022
 30
0.0
 10
-53.40050043439107
 20
-17.21594104259273
 30
0.0
 10
-53.69603836601571
 20
-16.93856219128291
 30
0.0
 10
-53.98550903528934
 20
-16.37741844237387
 30
0.0
 10
-54.1439396501186
 20
-15.73009006256623
 30
0.0
 10
-54.1636916944131
 20
-15.26994758453455
 30
0.0
 10
-54.17409210526316
 20
-15.02766021671827
 30
0.0
  0
SPLINE
  5
97
330
1F
100
AcDbEntity
  8
0
  6
Continuous
 62
     7
370
    15
100
AcDbSpline
210
0.0
220
0.0
230
1.0
 70
     8
 71
     3
 72
    11
 73
     7
 74
     0
 42
0.000000001
 43
0.00000001
 40
0.0
 40
0.0
 40
0.0
 40
0.0
 40
0.2462908217796622
 40
0.495587015186494
 40
0.7448832085933247
 40
1.0
 40
1.0
 40
1.0
 40
1.0
 10
-51.25736803405574
 20
-18.03575154798762
 30
0.0
 10
-51.4338610093279
 20
-18.02756386892026
 30
0.0
 10
-51.78900062104579
 20
-18.01108860036995
 30
0.0
 10
-52.30842386386877
 20
-17.8791777900433
 30
0.0
 10
-52.81074324466972
 20
-17.67251320805304
 30
0.0
 10
-53.10471118448322
 20
-17.46099215644341
 30
0.0
 10
-53.25339125386998
 20
-17.35401122291022
 30
0.0
  0
SPLINE
  5
98
330
1F
100
AcDbEntity
  8
0
  6
Continuous
 62
     7
370
    15
100
AcDbSpline
210
0.0
220
0.0
230
1.0
 70
     8
 71
     3
 72
    11
 73
     7
 74
     0
 42
0.000000001
 43
0.00000001
 40
0.0
 40
0.0
 40
0.0
 40
0.0
 40
0.2508006688250516
 40
0.5009894343249534
 40
0.7495390929053211
 40
1.0
 40
1.0
 40
1.0
 40
1.0
 10
-49.31757082043345
 20
-17.35401122291022
 30
0.0
 10
-49.46616860363094
 20
-17.44530879507672
 30
0.0
 10
-49.76300162124136
 20
-17.62768119164652
 30
0.0
 10
-50.23106598287382
 20
-17.85982202089109
 30
0.0
 10
-50.73582203324605
 20
-18.00625031693256
 30
0.0
 10
-51.08307603069015
 20
-18.0258927269932
 30
0.0
 10
-51.25736803405574
 20
-18.03575154798762
 30
0.0
  0
SPLINE
  5
99
330
1F
100
AcDbEntity
  8
0
  6
Continuous
 62
     7
370
    15
100
AcDbSpline
210
0.0
220
0.0
230
1.0
 70
     8
 71
     3
 72
    11
 73
     7
 74
     0
 42
0.000000001
 43
0.00000001
 40
0.0
 40
0.0
 40
0.0
 40
0.0
 40
0.283743683742069
 40
0.5395685287509485
 40
0.7741831754772212
 40
1.0
 40
1.0
 40
1.0
 40
1.0
 10
-48.43903947368422
 20
-15.02766021671827
 30
0.0
 10
-48.44830174703662
 20
-15.27026470303719
 30
0.0
 10
-48.46591493630567
 20
-15.73160271072471
 30
0.0
 10
-48.63874207157777
 20
-16.37328544937459
 30
0.0
 10
-48.90849077816139
 20
-16.93070936220029
 30
0.0
 10
-49.18295896537941
 20
-17.21471953710342
 30
0.0
 10
-49.31757082043345
 20
-17.35401122291022
 30
0.0
  0
SPLINE
  5
9A
330
1F
100
AcDbEntity
  8
0
  6
Continuous
 62
     7
370
    15
100
AcDbSpline
210
0.0
220
0.0
230
1.0
 70
     8
 71
     3
 72
    11
 73
     7
 74
     0
 42
0.000000001
 43
0.00000001
 40
0.0
 40
0.0
 40
0.0
 40
0.0
 40
0.2183359612505085
 40
0.4509386170100698
 40
0.7099497930056707
 40
1.0
 40
1.0
 40
1.0
 40
1.0
 10
-49.31757082043345
 20
-12.74347871517028
 30
0.0
 10
-49.1825050046198
 20
-12.87034899421765
 30
0.0
 10
-48.90354778731349
 20
-13.13237961824142
 30
0.0
 10
-48.63676857223336
 20
-13.67922735713628
 30
0.0
 10
-48.46556986312508
 20
-14.31891273934416
 30
0.0
 10
-48.44821005962395
 20
-14.78267211862404
 30
0.0
 10
-48.43903947368422
 20
-15.02766021671827
 30
0.0
  0
SPLINE
  5
9B
330
1F
100
AcDbEntity
  8
0
  6
Continuous
 62
     7
370
    15
100
AcDbSpline
210
0.0
220
0.0
230
1.0
 70
     8
 71
     3
 72
    11
 73
     7
 74
     0
 42
0.000000001
 43
0.00000001
 40
0.0
 40
0.0
 40
0.0
 40
0.0
 40
0.2483754809578966
 40
0.4877932828842726
 40
0.7334689501713192
 40
1.0
 40
1.0
 40
1.0
 40
1.0
 10
-51.20817027863778
 20
-12.01254063467492
 30
0.0
 10
-51.03611139716006
 20
-12.01951331993542
 30
0.0
 10
-50.6981989497569
 20
-12.03320722007652
 30
0.0
 10
-50.20815988184118
 20
-12.17704850227678
 30
0.0
 10
-49.73681597433667
 20
-12.40348760367053
 30
0.0
 10
-49.46106180770617
 20
-12.62711324308587
 30
0.0
 10
-49.31757082043345
 20
-12.74347871517028
 30
0.0
  0
SPLINE
  5
9D
330
1F
100
AcDbEntity
  8
0
  6
Continuous
 62
     7
370
    15
100
AcDbSpline
210
0.0
220
0.0
230
1.0
 70
     8
 71
     3
 72
    11
 73
     7
 74
     0
 42
0.000000001
 43
0.00000001
 40
0.0
 40
0.0
 40
0.0
 40
0.0
 40
0.2658986932494666
 40
0.5113257619643444
 40
0.7551169955071805
 40
1.0
 40
1.0
 40
1.0
 40
1.0
 10
-53.30258900928794
 20
-12.84187422600619
 30
0.0
 10
-53.15453195421101
 20
-12.72068383550789
 30
0.0
 10
-52.86981680357889
 20
-12.48763354102539
 30
0.0
 10
-52.38018894800071
 20
-12.24825025915484
 30
0.0
 10
-51.8787388005878
 20
-12.07990859949383
 30
0.0
 10
-51.53034808235575
 20
-12.03503004473726
 30
0.0
 10
-51.35576354489165
 20
-12.01254063467492
 30
0.0
  0
SPLINE
  5
9E
330
1F
100
AcDbEntity
  8
0
  6
Continuous
 62
     7
370
    15
100
AcDbSpline
210
0.0
220
0.0
230
1.0
 70
     8
 71
     3
 72
    11
 73
     7
 74
     0
 42
0.000000001
 43
0.00000001
 40
0.0
 40
0.0
 40
0.0
 40
0.0
 40
0.2636500947832209
 40
0.511948902951093
 40
0.7564036153366578
 40
1.0
 40
1.0
 40
1.0
 40
1.0
 10
-54.17409210526316
 20
-14.92926470588235
 30
0.0
 10
-54.16360031078963
 20
-14.72419674983188
 30
0.0
 10
-54.14322761691626
 20
-14.32600112158154
 30
0.0
 10
-53.97524407453186
 20
-13.75853659790097
 30
0.0
 10
-53.70475538653874
 20
-13.24685652628755
 30
0.0
 10
-53.43648720203806
 20
-12.9767099586056
 30
0.0
 10
-53.30258900928794
 20
-12.84187422600619
 30
0.0
  0
SPLINE
  5
B4
330
1F
100
AcDbEntity
  8
0
  6
Continuous
 62
     7
370
    15
100
AcDbSpline
210
0.0
220
0.0
230
1.0
 70
     8
 71
     3
 72
    11
 73
     7
 74
     0
 42
0.000000001
 43
0.00000001
 40
0.0
 40
0.0
 40
0.0
 40
0.0
 40
0.2797122222676918
 40
0.5358947025574178
 40
0.7680168975333235
 40
1.0
 40
1.0
 40
1.0
 40
1.0
 10
-78.39344427244582
 20
6.401476393188849
 30
0.0
 10
-78.40735295650158
 20
6.260910401409162
 30
0.0
 10
-78.4340003087145
 20
5.991603004886558
 30
0.0
 10
-78.47452271544034
 20
5.605660816276847
 30
0.0
 10
-78.48553177522025
 20
5.241867631316574
 30
0.0
 10
-78.48973753408369
 20
5.007534118348852
 30
0.0
 10
-78.49183978328173
 20
4.89040247678018
 30
0.0
  0
SPLINE
  5
B5
330
1F
100
AcDbEntity
  8
0
  6
Continuous
 62
     7
370
    15
100
AcDbSpline
210
0.0
220
0.0
230
1.0
 70
     8
 71
     3
 72
    11
 73
     7
 74
     0
 42
0.000000001
 43
0.00000001
 40
0.0
 40
0.0
 40
0.0
 40
0.0
 40
0.2524704599444669
 40
0.502872950674692
 40
0.7514364753373478
 40
1.0
 40
1.0
 40
1.0
 40
1.0
 10
-77.95769272445821
 20
8.144482585139313
 30
0.0
 10
-78.00071674536868
 20
7.999476712182776
 30
0.0
 10
-78.08641238021605
 20
7.710652699999913
 30
0.0
 10
-78.19926878743794
 20
7.274715810547138
 30
0.0
 10
-78.29433640947656
 20
6.837063023646808
 30
0.0
 10
-78.36040831812274
 20
6.546671936674834
 30
0.0
 10
-78.39344427244582
 20
6.401476393188849
 30
0.0
  0
SPLINE
  5
B6
330
1F
100
AcDbEntity
  8
0
  6
Continuous
 62
     7
370
    15
100
AcDbSpline
210
0.0
220
0.0
230
1.0
 70
     8
 71
     3
 72
    11
 73
     7
 74
     0
 42
0.000000001
 43
0.00000001
 40
0.0
 40
0.0
 40
0.0
 40
0.0
 40
0.2648964549748936
 40
0.5177101820780283
 40
0.7609652537621823
 40
1.0
 40
1.0
 40
1.0
 40
1.0
 10
-75.87030224458205
 20
11.39856269349845
 30
0.0
 10
-76.11440005397735
 20
11.15440720460865
 30
0.0
 10
-76.59146163397801
 20
10.67723289655508
 30
0.0
 10
-77.16669233259499
 20
9.866053774374269
 30
0.0
 10
-77.62283763363637
 20
9.022278472859282
 30
0.0
 10
-77.8467274175242
 20
8.435369278446574
 30
0.0
 10
-77.95769272445821
 20
8.144482585139313
 30
0.0
  0
SPLINE
  5
B7
330
1F
100
AcDbEntity
  8
0
  6
Continuous
 62
     7
370
    15
100
AcDbSpline
210
0.0
220
0.0
230
1.0
 70
     8
 71
     3
 72
    15
 73
    11
 74
     0
 42
0.000000001
 43
0.00000001
 40
0.0
 40
0.0
 40
0.0
 40
0.0
 40
0.1470499385645829
 40
0.2864284108303983
 40
0.4186582163302822
 40
0.5452382343191978
 40
0.6664987201076724
 40
0.7802715073816914
 40
0.8916039628873765
 40
1.0
 40
1.0
 40
1.0
 40
1.0
 10
-71.25274148606812
 20
12.90963660990712
 30
0.0
 10
-71.49667489164298
 20
12.9072642925313
 30
0.0
 10
-71.97181591100879
 20
12.90264341949611
 30
0.0
 10
-72.6615249621264
 20
12.81842993567174
 30
0.0
 10
-73.3127583832134
 20
12.70631747878264
 30
0.0
 10
-73.91775624627108
 20
12.52636236060519
 30
0.0
 10
-74.47800799527425
 20
12.31157758441084
 30
0.0
 10
-74.99320003437374
 20
12.05629108244098
 30
0.0
 10
-75.45991682087231
 20
11.75637094620866
 30
0.0
 10
-75.7347312963954
 20
11.5167647574276
 30
0.0
 10
-75.87030224458205
 20
11.39856269349845
 30
0.0
  0
SPLINE
  5
B8
330
1F
100
AcDbEntity
  8
0
  6
Continuous
 62
     7
370
    15
100
AcDbSpline
210
0.0
220
0.0
230
1.0
 70
     8
 71
     3
 72
    15
 73
    11
 74
     0
 42
0.000000001
 43
0.00000001
 40
0.0
 40
0.0
 40
0.0
 40
0.0
 40
0.1238390195298294
 40
0.2444401728529988
 40
0.3651025295058227
 40
0.4868430930678558
 40
0.6091584357386872
 40
0.7347144811209029
 40
0.8649805041316253
 40
1.0
 40
1.0
 40
1.0
 40
1.0
 10
-66.15023142414863
 20
10.62545510835913
 30
0.0
 10
-66.30776234820829
 20
10.80521667818471
 30
0.0
 10
-66.61870542941998
 20
11.16003981363361
 30
0.0
 10
-67.1550451604581
 20
11.61921605391442
 30
0.0
 10
-67.73252538387048
 20
12.01717139086092
 30
0.0
 10
-68.36013261216604
 20
12.33808387796756
 30
0.0
 10
-69.0265133770262
 20
12.59460843819219
 30
0.0
 10
-69.73404706626376
 20
12.77529024614182
 30
0.0
 10
-70.48042680297482
 20
12.89229734325007
 30
0.0
 10
-70.9922462753629
 20
12.90378822191169
 30
0.0
 10
-71.25274148606812
 20
12.90963660990712
 30
0.0
  0
SPLINE
  5
B9
330
1F
100
AcDbEntity
  8
0
  6
Continuous
 62
     7
370
    15
100
AcDbSpline
210
0.0
220
0.0
230
1.0
 70
     8
 71
     3
 72
    15
 73
    11
 74
     0
 42
0.000000001
 43
0.00000001
 40
0.0
 40
0.0
 40
0.0
 40
0.0
 40
0.153621067798975
 40
0.2978889974940014
 40
0.4334622146643514
 40
0.5599327598882019
 40
0.6790316106020133
 40
0.7907733623601553
 40
0.8976617605297852
 40
1.0
 40
1.0
 40
1.0
 40
1.0
 10
-64.30180147058825
 20
3.822108359133124
 30
0.0
 10
-64.30702401360088
 20
4.190068886774542
 30
0.0
 10
-64.3171511278352
 20
4.903586858410444
 30
0.0
 10
-64.39998173624048
 20
5.93939484978393
 30
0.0
 10
-64.54651403936953
 20
6.902264107698498
 30
0.0
 10
-64.74944771292847
 20
7.793161411384898
 30
0.0
 10
-65.00713191584829
 20
8.610438835585033
 30
0.0
 10
-65.32364890969528
 20
9.356197381739477
 30
0.0
 10
-65.70193143376429
 20
10.02816604146391
 30
0.0
 10
-66.00298044966141
 20
10.42926639759096
 30
0.0
 10
-66.15023142414861
 20
10.62545510835913
 30
0.0
  0
SPLINE
  5
BB
330
1F
100
AcDbEntity
  8
0
  6
Continuous
 62
     7
370
    15
100
AcDbSpline
210
0.0
220
0.0
230
1.0
 70
     8
 71
     3
 72
    11
 73
     7
 74
     0
 42
0.000000001
 43
0.00000001
 40
0.0
 40
0.0
 40
0.0
 40
0.0
 40
0.2342513240096148
 40
0.468502648019213
 40
0.7121277023762879
 40
1.0
 40
1.0
 40
1.0
 40
1.0
 10
-64.35099922600621
 20
2.852209752321977
 30
0.0
 10
-64.35076582670747
 20
2.868603748391346
 30
0.0
 10
-64.35029902811004
 20
2.901391740530085
 30
0.0
 10
-64.35384671577073
 20
2.951325611072527
 30
0.0
 10
-64.3389840435671
 20
3.00459876102508
 30
0.0
 10
-64.31486496728982
 20
3.033400843610008
 30
0.0
 10
-64.30180147058825
 20
3.049000773993803
 30
0.0
  0
SPLINE
  5
C3
330
1F
100
AcDbEntity
  8
0
  6
Continuous
 62
     7
370
    15
100
AcDbSpline
210
0.0
220
0.0
230
1.0
 70
     8
 71
     3
 72
    15
 73
    11
 74
     0
 42
0.000000001
 43
0.00000001
 40
0.0
 40
0.0
 40
0.0
 40
0.0
 40
0.1179373323426758
 40
0.2354608975420424
 40
0.3530246981375681
 40
0.4726877867799707
 40
0.596261005849633
 40
0.7239840532686409
 40
0.8589377881840116
 40
1.0
 40
1.0
 40
1.0
 40
1.0
 10
-63.09294233746131
 20
13.63354643962848
 30
0.0
 10
-62.82107907592975
 20
13.33718932528429
 30
0.0
 10
-62.2783063482668
 20
12.74551482535836
 30
0.0
 10
-61.59240569934724
 20
11.75340295968059
 30
0.0
 10
-61.00880448858261
 20
10.69262387411693
 30
0.0
 10
-60.54781802885033
 20
9.550639645480246
 30
0.0
 10
-60.18088869695732
 20
8.339606862088026
 30
0.0
 10
-59.92175226507439
 20
7.047812097702217
 30
0.0
 10
-59.76583817818455
 20
5.679098523330154
 30
0.0
 10
-59.74904773402969
 20
4.738544542871176
 30
0.0
 10
-59.74046671826626
 20
4.257859907120739
 30
0.0
  0
SPLINE
  5
C4
330
1F
100
AcDbEntity
  8
0
  6
Continuous
 62
     7
370
    15
100
AcDbSpline
210
0.0
220
0.0
230
1.0
 70
     8
 71
     3
 72
    15
 73
    11
 74
     0
 42
0.000000001
 43
0.00000001
 40
0.0
 40
0.0
 40
0.0
 40
0.0
 40
0.1331164103130985
 40
0.2620369968287134
 40
0.3865518412189602
 40
0.5094403413421192
 40
0.6310715619921857
 40
0.7521159908555403
 40
0.8744192185642828
 40
1.0
 40
1.0
 40
1.0
 40
1.0
 10
-71.59009752321982
 20
17.13361532507739
 30
0.0
 10
-71.17024868894535
 20
17.12246853695618
 30
0.0
 10
-70.34378463844588
 20
17.1005263070185
 30
0.0
 10
-69.13311599987685
 20
16.93791034909285
 30
0.0
 10
-67.97665460110775
 20
16.66300954080264
 30
0.0
 10
-66.87745491497164
 20
16.27457454993254
 30
0.0
 10
-65.83274560121195
 20
15.78225913418077
 30
0.0
 10
-64.84909751199537
 20
15.18079724724635
 30
0.0
 10
-63.92570852409289
 20
14.46763952505474
 30
0.0
 10
-63.37296720488714
 20
13.91401748830548
 30
0.0
 10
-63.09294233746131
 20
13.63354643962848
 30
0.0
  0
SPLINE
  5
C5
330
1F
100
AcDbEntity
  8
0
  6
Continuous
 62
     7
370
    15
100
AcDbSpline
210
0.0
220
0.0
230
1.0
 70
     8
 71
     3
 72
    15
 73
    11
 74
     0
 42
0.000000001
 43
0.00000001
 40
0.0
 40
0.0
 40
0.0
 40
0.0
 40
0.1218062470147085
 40
0.240616306317902
 40
0.359974847992961
 40
0.4793356792785499
 40
0.601873394441193
 40
0.728829812875074
 40
0.8608845587472942
 40
1.0
 40
1.0
 40
1.0
 40
1.0
 10
-80.09428095975233
 20
13.59137693498452
 30
0.0
 10
-79.82877777534772
 20
13.87209853061943
 30
0.0
 10
-79.3043022487406
 20
14.42663653750165
 30
0.0
 10
-78.41009547925815
 20
15.14031717392563
 30
0.0
 10
-77.45569484670673
 20
15.75447618602864
 30
0.0
 10
-76.42432943868273
 20
16.25712598647702
 30
0.0
 10
-75.32201492147662
 20
16.65319339721605
 30
0.0
 10
-74.1431358078852
 20
16.93059727118532
 30
0.0
 10
-72.89077724249317
 20
17.10374681117724
 30
0.0
 10
-72.0311186571812
 20
17.12348781584141
 30
0.0
 10
-71.59009752321982
 20
17.13361532507739
 30
0.0
  0
SPLINE
  5
C6
330
1F
100
AcDbEntity
  8
0
  6
Continuous
 62
     7
370
    15
100
AcDbSpline
210
0.0
220
0.0
230
1.0
 70
     8
 71
     3
 72
    15
 73
    11
 74
     0
 42
0.000000001
 43
0.00000001
 40
0.0
 40
0.0
 40
0.0
 40
0.0
 40
0.1337570791720084
 40
0.2622593860089987
 40
0.3878376668800693
 40
0.5101404681401162
 40
0.6314297477610792
 40
0.7530101370968676
 40
0.875555122358964
 40
1.0
 40
1.0
 40
1.0
 40
1.0
 10
-83.10237229102167
 20
4.988797987616096
 30
0.0
 10
-83.09294967546839
 20
5.403909460410165
 30
0.0
 10
-83.07447462065338
 20
6.217824362366597
 30
0.0
 10
-82.9281619217933
 20
7.413883792730261
 30
0.0
 10
-82.70248933725424
 20
8.561134048881481
 30
0.0
 10
-82.36596562201747
 20
9.657730126272945
 30
0.0
 10
-81.94571324469412
 20
10.71162083271835
 30
0.0
 10
-81.42024961914373
 20
11.71785917619117
 30
0.0
 10
-80.81067332860405
 20
12.68775969183176
 30
0.0
 10
-80.33429986739169
 20
13.2886305168823
 30
0.0
 10
-80.09428095975233
 20
13.59137693498452
 30
0.0
  0
SPLINE
  5
CA
330
1F
100
AcDbEntity
  8
0
  6
Continuous
 62
     7
370
    15
100
AcDbSpline
210
0.0
220
0.0
230
1.0
 70
     8
 71
     3
 72
    11
 73
     7
 74
     0
 42
0.000000001
 43
0.00000001
 40
0.0
 40
0.0
 40
0.0
 40
0.0
 40
0.2783893857605272
 40
0.5435270621760854
 40
0.777877873352942
 40
1.0
 40
1.0
 40
1.0
 40
1.0
 10
-37.52416602167185
 20
7.174583978328171
 30
0.0
 10
-37.53910290375646
 20
7.066924246145689
 30
0.0
 10
-37.56826565224037
 20
6.856729529892591
 30
0.0
 10
-37.59559390361064
 20
6.554158255171942
 30
0.0
 10
-37.60952711475585
 20
6.272746860732071
 30
0.0
 10
-37.61356730430188
 20
6.094587587161723
 30
0.0
 10
-37.61553328173376
 20
6.007894349845198
 30
0.0
  0
SPLINE
  5
CB
330
1F
100
AcDbEntity
  8
0
  6
Continuous
 62
     7
370
    15
100
AcDbSpline
210
0.0
220
0.0
230
1.0
 70
     8
 71
     3
 72
    11
 73
     7
 74
     0
 42
0.000000001
 43
0.00000001
 40
0.0
 40
0.0
 40
0.0
 40
0.0
 40
0.257479949702551
 40
0.5053656994691824
 40
0.7503293147070291
 40
1.0
 40
1.0
 40
1.0
 40
1.0
 10
-37.08138622291023
 20
8.538064628482969
 30
0.0
 10
-37.1271051105757
 20
8.42371940472321
 30
0.0
 10
-37.21683931190167
 20
8.199289680959994
 30
0.0
 10
-37.32936534662837
 20
7.858359518825121
 30
0.0
 10
-37.42625681704565
 20
7.516764316140747
 30
0.0
 10
-37.49132322378509
 20
7.289365420159964
 30
0.0
 10
-37.52416602167185
 20
7.174583978328172
 30
0.0
  0
SPLINE
  5
CC
330
1F
100
AcDbEntity
  8
0
  6
Continuous
 62
     7
370
    15
100
AcDbSpline
210
0.0
220
0.0
230
1.0
 70
     8
 71
     3
 72
    11
 73
     7
 74
     0
 42
0.000000001
 43
0.00000001
 40
0.0
 40
0.0
 40
0.0
 40
0.0
 40
0.2733145978536161
 40
0.5273523141239159
 40
0.7670198382882003
 40
1.0
 40
1.0
 40
1.0
 40
1.0
 10
-35.09239125386998
 20
11.25799767801857
 30
0.0
 10
-35.32045100962836
 20
11.04775576869356
 30
0.0
 10
-35.76048546407098
 20
10.64210031421339
 30
0.0
 10
-36.31118441001735
 20
9.966134448332523
 30
0.0
 10
-36.7594131710101
 20
9.271482081170916
 30
0.0
 10
-36.97507900451607
 20
8.7802202028606
 30
0.0
 10
-37.08138622291023
 20
8.538064628482969
 30
0.0
  0
SPLINE
  5
CD
330
1F
100
AcDbEntity
  8
0
  6
Continuous
 62
     7
370
    15
100
AcDbSpline
210
0.0
220
0.0
230
1.0
 70
     8
 71
     3
 72
    15
 73
    11
 74
     0
 42
0.000000001
 43
0.00000001
 40
0.0
 40
0.0
 40
0.0
 40
0.0
 40
0.1495895460828458
 40
0.2898573359876517
 40
0.4216726090481245
 40
0.5476129522974302
 40
0.6666445506852631
 40
0.7798054315050938
 40
0.8914534303731562
 40
1.0
 40
1.0
 40
1.0
 40
1.0
 10
-31.10737306501549
 20
12.51605456656346
 30
0.0
 10
-31.32067476678663
 20
12.51159907082505
 30
0.0
 10
-31.7339861555569
 20
12.50296572605559
 30
0.0
 10
-32.33342878920573
 20
12.44824859064414
 30
0.0
 10
-32.89320001426974
 20
12.35032109899589
 30
0.0
 10
-33.41256685106325
 20
12.20995474368014
 30
0.0
 10
-33.89282141905532
 20
12.03451222399138
 30
0.0
 10
-34.33641160122613
 20
11.82347614170546
 30
0.0
 10
-34.73707756385494
 20
11.56434280308063
 30
0.0
 10
-34.97507073106305
 20
11.35914933989266
 30
0.0
 10
-35.09239125386998
 20
11.25799767801857
 30
0.0
  0
SPLINE
  5
CF
330
1F
100
AcDbEntity
  8
0
  6
Continuous
 62
     7
370
    15
100
AcDbSpline
210
0.0
220
0.0
230
1.0
 70
     8
 71
     3
 72
    11
 73
     7
 74
     0
 42
0.000000001
 43
0.00000001
 40
0.0
 40
0.0
 40
0.0
 40
0.0
 40
0.2652282705771739
 40
0.5508587158141429
 40
0.7990618829284022
 40
1.0
 40
1.0
 40
1.0
 40
1.0
 10
-30.38346323529413
 20
12.4738850619195
 30
0.0
 10
-30.41393358894762
 20
12.47410603256299
 30
0.0
 10
-30.47721816961256
 20
12.47456497159179
 30
0.0
 10
-30.56874312875429
 20
12.47108271522059
 30
0.0
 10
-30.65384629657683
 20
12.48213802930401
 30
0.0
 10
-30.70011807250046
 20
12.50557103928769
 30
0.0
 10
-30.72081927244583
 20
12.51605456656346
 30
0.0
  0
SPLINE
  5
D0
330
1F
100
AcDbEntity
  8
0
  6
Continuous
 62
     7
370
    15
100
AcDbSpline
210
0.0
220
0.0
230
1.0
 70
     8
 71
     3
 72
    11
 73
     7
 74
     0
 42
0.000000001
 43
0.00000001
 40
0.0
 40
0.0
 40
0.0
 40
0.0
 40
0.2554383652692618
 40
0.5077423987655
 40
0.7500725095777786
 40
0.9999999999999999
 40
0.9999999999999999
 40
0.9999999999999999
 40
0.9999999999999999
 10
-29.60332739938082
 20
12.37548955108359
 30
0.0
 10
-29.66871730007814
 20
12.39071663398089
 30
0.0
 10
-29.79869474101616
 20
12.42098395732649
 30
0.0
 10
-29.99433300351157
 20
12.44519963043089
 30
0.0
 10
-30.18838915244514
 20
12.47068621165662
 30
0.0
 10
-30.31777291555997
 20
12.47280786348554
 30
0.0
 10
-30.38346323529413
 20
12.4738850619195
 30
0.0
  0
SPLINE
  5
D1
330
1F
100
AcDbEntity
  8
0
  6
Continuous
 62
     7
370
    15
100
AcDbSpline
210
0.0
220
0.0
230
1.0
 70
     8
 71
     3
 72
    11
 73
     7
 74
     0
 42
0.000000001
 43
0.00000001
 40
0.0
 40
0.0
 40
0.0
 40
0.0
 40
0.258028063795852
 40
0.5068331933855887
 40
0.7511868347177442
 40
1.0
 40
1.0
 40
1.0
 40
1.0
 10
-26.4476428018576
 20
10.91361339009287
 30
0.0
 10
-26.68954045428442
 20
11.09546867742191
 30
0.0
 10
-27.16468938904901
 20
11.45267903142418
 30
0.0
 10
-27.93910120419017
 20
11.87661834254355
 30
0.0
 10
-28.75128966799158
 20
12.19662493750614
 30
0.0
 10
-29.31760782079846
 20
12.31550966975683
 30
0.0
 10
-29.60332739938082
 20
12.37548955108359
 30
0.0
  0
SPLINE
  5
D2
330
1F
100
AcDbEntity
  8
0
  6
Continuous
 62
     7
370
    15
100
AcDbSpline
210
0.0
220
0.0
230
1.0
 70
     8
 71
     3
 72
    15
 73
    11
 74
     0
 42
0.000000001
 43
0.00000001
 40
0.0
 40
0.0
 40
0.0
 40
0.0
 40
0.1472575033978297
 40
0.286997150382468
 40
0.416722760646842
 40
0.5413635106249018
 40
0.6602224077870809
 40
0.7756987691932388
 40
0.8874602781303527
 40
1.0
 40
1.0
 40
1.0
 40
1.0
 10
-24.98576664086689
 20
7.174583978328171
 30
0.0
 10
-24.98894753857551
 20
7.378642468789424
 30
0.0
 10
-24.99514694136973
 20
7.776341763714394
 30
0.0
 10
-25.06780657306893
 20
8.349847071536368
 30
0.0
 10
-25.17775332348672
 20
8.885318070839253
 30
0.0
 10
-25.34062347492756
 20
9.376906596516585
 30
0.0
 10
-25.54278927357383
 20
9.832468188518122
 30
0.0
 10
-25.79718058968058
 20
10.24012208772359
 30
0.0
 10
-26.094179702815
 20
10.60792920056444
 30
0.0
 10
-26.32954956366501
 20
10.81148325004863
 30
0.0
 10
-26.4476428018576
 20
10.91361339009288
 30
0.0
  0
SPLINE
  5
D3
330
1F
100
AcDbEntity
  8
0
  6
Continuous
 62
     7
370
    15
100
AcDbSpline
210
0.0
220
0.0
230
1.0
 70
     8
 71
     3
 72
    15
 73
    11
 74
     0
 42
0.000000001
 43
0.00000001
 40
0.0
 40
0.0
 40
0.0
 40
0.0
 40
0.1180229709448303
 40
0.234218914885295
 40
0.3519014788771156
 40
0.4711642962797493
 40
0.594938993162986
 40
0.7243225553416892
 40
0.8579675178934323
 40
1.0
 40
1.0
 40
1.0
 40
1.0
 10
-26.63740557275544
 20
3.140368034055725
 30
0.0
 10
-26.50579803312811
 20
3.259370989986813
 30
0.0
 10
-26.24462027361682
 20
3.495534704416195
 30
0.0
 10
-25.90114215445567
 20
3.900417950159145
 30
0.0
 10
-25.62314761693824
 20
4.354074455685068
 30
0.0
 10
-25.38839968824437
 20
4.843455303285609
 30
0.0
 10
-25.20392932329429
 20
5.373341172124719
 30
0.0
 10
-25.08258895011647
 20
5.942627118247009
 30
0.0
 10
-25.00175704156552
 20
6.54678156006181
 30
0.0
 10
-24.99120380229299
 20
6.961114462701678
 30
0.0
 10
-24.98576664086689
 20
7.174583978328172
 30
0.0
  0
SPLINE
  5
D4
330
1F
100
AcDbEntity
  8
0
  6
Continuous
 62
     7
370
    15
100
AcDbSpline
210
0.0
220
0.0
230
1.0
 70
     8
 71
     3
 72
    11
 73
     7
 74
     0
 42
0.000000001
 43
0.00000001
 40
0.0
 40
0.0
 40
0.0
 40
0.0
 40
0.245251872666855
 40
0.4899023964205647
 40
0.7406561170777661
 40
1.0
 40
1.0
 40
1.0
 40
1.0
 10
-30.18667221362231
 20
1.446559597523215
 30
0.0
 10
-29.86547785399774
 20
1.507284595179999
 30
0.0
 10
-29.22387669195242
 20
1.628585694948163
 30
0.0
 10
-28.3005735426492
 20
1.984942768828431
 30
0.0
 10
-27.41577426498798
 20
2.471677056172769
 30
0.0
 10
-26.89975841248401
 20
2.914982585361368
 30
0.0
 10
-26.63740557275544
 20
3.140368034055725
 30
0.0
  0
SPLINE
  5
D6
330
1F
100
AcDbEntity
  8
0
  6
Continuous
 62
     7
370
    15
100
AcDbSpline
210
0.0
220
0.0
230
1.0
 70
     8
 71
     3
 72
    11
 73
     7
 74
     0
 42
0.000000001
 43
0.00000001
 40
0.0
 40
0.0
 40
0.0
 40
0.0
 40
0.1982857324224795
 40
0.396571464844987
 40
0.6577291970330157
 40
1.0
 40
1.0
 40
1.0
 40
1.0
 10
-30.67162151702788
 20
1.39736184210526
 30
0.0
 10
-30.65523183647793
 20
1.397536198695702
 30
0.0
 10
-30.62245247537804
 20
1.397884911876585
 30
0.0
 10
-30.56789613860645
 20
1.39499314001717
 30
0.0
 10
-30.50247276027919
 20
1.411069781313814
 30
0.0
 10
-30.45792750985096
 20
1.433714999455435
 30
0.0
 10
-30.43266099071209
 20
1.446559597523215
 30
0.0
  0
SPLINE
  5
D8
330
1F
100
AcDbEntity
  8
0
  6
Continuous
 62
     7
370
    15
100
AcDbSpline
210
0.0
220
0.0
230
1.0
 70
     8
 71
     3
 72
    11
 73
     7
 74
     0
 42
0.000000001
 43
0.00000001
 40
0.0
 40
0.0
 40
0.0
 40
0.0
 40
0.29567427573217
 40
0.5486203263915383
 40
0.7834748384802446
 40
1.0
 40
1.0
 40
1.0
 40
1.0
 10
-31.8875089009288
 20
1.537926857585137
 30
0.0
 10
-31.85607607307461
 20
1.510251083723652
 30
0.0
 10
-31.79775281098467
 20
1.458898993483716
 30
0.0
 10
-31.69431873187166
 20
1.413670372134164
 30
0.0
 10
-31.59482344249793
 20
1.404266566615117
 30
0.0
 10
-31.53138587505225
 20
1.399600254692076
 30
0.0
 10
-31.50095510835915
 20
1.39736184210526
 30
0.0
  0
SPLINE
  5
DC
330
1F
100
AcDbEntity
  8
0
  6
Continuous
 62
     7
370
    15
100
AcDbSpline
210
0.0
220
0.0
230
1.0
 70
     8
 71
     3
 72
    11
 73
     7
 74
     0
 42
0.000000001
 43
0.00000001
 40
0.0
 40
0.0
 40
0.0
 40
0.0
 40
0.2281802114991814
 40
0.4674169351782941
 40
0.7228839632022294
 40
1.0
 40
1.0
 40
1.0
 40
1.0
 10
-26.4476428018576
 20
-4.000334752321984
 30
0.0
 10
-26.77045574330263
 20
-3.81572778793507
 30
0.0
 10
-27.43172358390441
 20
-3.437568696314587
 30
0.0
 10
-28.55510206944983
 20
-3.071622467107712
 30
0.0
 10
-29.78890799382691
 20
-2.820197892117555
 30
0.0
 10
-30.65613406221395
 20
-2.796682831471965
 30
0.0
 10
-31.10737306501549
 20
-2.784447368421056
 30
0.0
  0
SPLINE
  5
DD
330
1F
100
AcDbEntity
  8
0
  6
Continuous
 62
     7
370
    15
100
AcDbSpline
210
0.0
220
0.0
230
1.0
 70
     8
 71
     3
 72
    15
 73
    11
 74
     0
 42
0.000000001
 43
0.00000001
 40
0.0
 40
0.0
 40
0.0
 40
0.0
 40
0.1393709639149079
 40
0.2717995153336641
 40
0.3976888923246282
 40
0.5202058660590742
 40
0.6404600970668
 40
0.7584896603325098
 40
0.878022256348225
 40
1.0
 40
1.0
 40
1.0
 40
1.0
 10
-24.64841060371518
 20
-7.640968653250776
 30
0.0
 10
-24.65371884543908
 20
-7.443905698463189
 30
0.0
 10
-24.6640709122348
 20
-7.05959598217115
 30
0.0
 10
-24.74704275779922
 20
-6.501825279985208
 30
0.0
 10
-24.89636834323548
 20
-5.982894056255604
 30
0.0
 10
-25.10312662513001
 20
-5.503681137760075
 30
0.0
 10
-25.35145703418085
 20
-5.055929221462208
 30
0.0
 10
-25.67027695898285
 20
-4.661596751383064
 30
0.0
 10
-26.02495163343608
 20
-4.294582337785974
 30
0.0
 10
-26.30579794544645
 20
-4.099077072075987
 30
0.0
 10
-26.4476428018576
 20
-4.000334752321985
 30
0.0
  0
SPLINE
  5
E1
330
1F
100
AcDbEntity
  8
0
  6
Continuous
 62
     7
370
    15
100
AcDbSpline
210
0.0
220
0.0
230
1.0
 70
     8
 71
     3
 72
    11
 73
     7
 74
     0
 42
0.000000001
 43
0.00000001
 40
0.0
 40
0.0
 40
0.0
 40
0.0
 40
0.2439442445179939
 40
0.4937819142430941
 40
0.7468679420939173
 40
1.0
 40
1.0
 40
1.0
 40
1.0
 10
-21.14834171826627
 20
-2.833645123839013
 30
0.0
 10
-20.98218485253925
 20
-3.148275585775529
 30
0.0
 10
-20.64585695357434
 20
-3.785137636287003
 30
0.0
 10
-20.30805151023353
 20
-4.822482286657346
 30
0.0
 10
-20.066699191704
 20
-5.901033654636938
 30
0.0
 10
-20.04280035173709
 20
-6.639272898081104
 30
0.0
 10
-20.03084984520126
 20
-7.008426083591333
 30
0.0
  0
SPLINE
  5
E2
330
1F
100
AcDbEntity
  8
0
  6
Continuous
 62
     7
370
    15
100
AcDbSpline
210
0.0
220
0.0
230
1.0
 70
     8
 71
     3
 72
    11
 73
     7
 74
     0
 42
0.000000001
 43
0.00000001
 40
0.0
 40
0.0
 40
0.0
 40
0.0
 40
0.2501234241594832
 40
0.493206745272663
 40
0.7394229857484399
 40
1.0
 40
1.0
 40
1.0
 40
1.0
 10
-24.26185681114552
 20
-0.1137120743034091
 30
0.0
 10
-23.94692617940778
 20
-0.2681752859562915
 30
0.0
 10
-23.32592911610596
 20
-0.5727541079506098
 30
0.0
 10
-22.49438437013372
 20
-1.19602960440695
 30
0.0
 10
-21.73748690592045
 20
-1.932003487858849
 30
0.0
 10
-21.3483985880273
 20
-2.527473390418541
 30
0.0
 10
-21.14834171826627
 20
-2.833645123839013
 30
0.0
  0
SPLINE
  5
E3
330
1F
100
AcDbEntity
  8
0
  6
Continuous
 62
     7
370
    15
100
AcDbSpline
210
0.0
220
0.0
230
1.0
 70
     8
 71
     3
 72
    11
 73
     7
 74
     0
 42
0.000000001
 43
0.00000001
 40
0.0
 40
0.0
 40
0.0
 40
0.0
 40
0.260298119223055
 40
0.5080437487119173
 40
0.7510870761638299
 40
1.0
 40
1.0
 40
1.0
 40
1.0
 10
-21.3451327399381
 20
2.803011996904022
 30
0.0
 10
-21.51665238214063
 20
2.479454011650829
 30
0.0
 10
-21.85142038685152
 20
1.847941143850021
 30
0.0
 10
-22.53581901307934
 20
1.037430807587999
 30
0.0
 10
-23.33355903107544
 20
0.36117581321512
 30
0.0
 10
-23.94997271286445
 20
0.0458380008590443
 30
0.0
 10
-24.26185681114552
 20
-0.1137120743034091
 30
0.0
  0
SPLINE
  5
E4
330
1F
100
AcDbEntity
  8
0
  6
Continuous
 62
     7
370
    15
100
AcDbSpline
210
0.0
220
0.0
230
1.0
 70
     8
 71
     3
 72
    11
 73
     7
 74
     0
 42
0.000000001
 43
0.00000001
 40
0.0
 40
0.0
 40
0.0
 40
0.0
 40
0.2552023298455237
 40
0.5070646946737385
 40
0.7531753913845437
 40
1.0
 40
1.0
 40
1.0
 40
1.0
 10
-20.42443188854491
 20
7.174583978328171
 30
0.0
 10
-20.4367009729553
 20
6.791920273077716
 30
0.0
 10
-20.46107856991631
 20
6.031600980604984
 30
0.0
 10
-20.65237205831403
 20
4.916243241119667
 30
0.0
 10
-20.93852306124764
 20
3.835284455938433
 30
0.0
 10
-21.20946537960863
 20
3.147434884497465
 30
0.0
 10
-21.3451327399381
 20
2.803011996904023
 30
0.0
  0
SPLINE
  5
E6
330
1F
100
AcDbEntity
  8
0
  6
Continuous
 62
     7
370
    15
100
AcDbSpline
210
0.0
220
0.0
230
1.0
 70
     8
 71
     3
 72
    15
 73
    11
 74
     0
 42
0.000000001
 43
0.00000001
 40
0.0
 40
0.0
 40
0.0
 40
0.0
 40
0.1339252798957342
 40
0.2623085973365368
 40
0.3877824174269482
 40
0.5112855415583356
 40
0.6330470746729885
 40
0.753872614990653
 40
0.8757769601800953
 40
1.0
 40
1.0
 40
1.0
 40
1.0
 10
-23.53091873065017
 20
14.36448452012383
 30
0.0
 10
-23.28163249532089
 20
14.13807750797998
 30
0.0
 10
-22.79337573919959
 20
13.69463243301842
 30
0.0
 10
-22.16752452394264
 20
12.94506319753878
 30
0.0
 10
-21.62613153154163
 20
12.16497094951875
 30
0.0
 10
-21.1939982082881
 20
11.33811088016035
 30
0.0
 10
-20.84145169907431
 20
10.48661351782803
 30
0.0
 10
-20.60753586753177
 20
9.599623963335493
 30
0.0
 10
-20.45132381720825
 20
8.688836490846418
 30
0.0
 10
-20.43345198654189
 20
8.070174104897852
 30
0.0
 10
-20.42443188854491
 20
7.757928792569653
 30
0.0
  0
SPLINE
  5
E7
330
1F
100
AcDbEntity
  8
0
  6
Continuous
 62
     7
370
    15
100
AcDbSpline
210
0.0
220
0.0
230
1.0
 70
     8
 71
     3
 72
    15
 73
    11
 74
     0
 42
0.000000001
 43
0.00000001
 40
0.0
 40
0.0
 40
0.0
 40
0.0
 40
0.1292886808558296
 40
0.2559345435436725
 40
0.3793527308292081
 40
0.501914798434348
 40
0.6243682315308348
 40
0.7475197193965359
 40
0.8719769767622082
 40
1.0
 40
1.0
 40
1.0
 40
1.0
 10
-30.77001702786379
 20
17.13361532507739
 30
0.0
 10
-30.42764760509949
 20
17.12539052422013
 30
0.0
 10
-29.74990720773091
 20
17.10910904745662
 30
0.0
 10
-28.75105643695538
 20
16.98335893946178
 30
0.0
 10
-27.78922203996887
 20
16.75903300784121
 30
0.0
 10
-26.85621631764669
 20
16.46906976649914
 30
0.0
 10
-25.96212926856696
 20
16.07657212782575
 30
0.0
 10
-25.09918522235259
 20
15.60934743475898
 30
0.0
 10
-24.2848562272284
 20
15.03348710579536
 30
0.0
 10
-23.7845863247811
 20
14.58957516377118
 30
0.0
 10
-23.53091873065017
 20
14.36448452012383
 30
0.0
  0
SPLINE
  5
E8
330
1F
100
AcDbEntity
  8
0
  6
Continuous
 62
     7
370
    15
100
AcDbSpline
210
0.0
220
0.0
230
1.0
 70
     8
 71
     3
 72
    15
 73
    11
 74
     0
 42
0.000000001
 43
0.00000001
 40
0.0
 40
0.0
 40
0.0
 40
0.0
 40
0.1140597770452603
 40
0.2280145212761623
 40
0.3439555039526422
 40
0.4633675581968155
 40
0.5877737985902667
 40
0.7181805610236119
 40
0.855023516935784
 40
1.0
 40
1.0
 40
1.0
 40
1.0
 10
-39.36556772445822
 20
13.44378366873064
 30
0.0
 10
-39.12169368296416
 20
13.71777515468069
 30
0.0
 10
-38.63417017324447
 20
14.26550581943427
 30
0.0
 10
-37.77576739872258
 20
14.96663499742081
 30
0.0
 10
-36.83864382466928
 20
15.58741700377227
 30
0.0
 10
-35.79437699068588
 20
16.08844432976463
 30
0.0
 10
-34.66570289355457
 20
16.50616191066984
 30
0.0
 10
-33.44527585684668
 20
16.81775004102359
 30
0.0
 10
-32.13811314975717
 20
17.03965326061229
 30
0.0
 10
-31.23473975365175
 20
17.10169775289799
 30
0.0
 10
-30.77001702786379
 20
17.13361532507739
 30
0.0
  0
SPLINE
  5
E9
330
1F
100
AcDbEntity
  8
0
  6
Continuous
 62
     7
370
    15
100
AcDbSpline
210
0.0
220
0.0
230
1.0
 70
     8
 71
     3
 72
    15
 73
    11
 74
     0
 42
0.000000001
 43
0.00000001
 40
0.0
 40
0.0
 40
0.0
 40
0.0
 40
0.1474332301227745
 40
0.2871916187278764
 40
0.4191528743226459
 40
0.5441734908592345
 40
0.6638344842758854
 40
0.7785435934027758
 40
0.8904578366135963
 40
1.0
 40
1.0
 40
1.0
 40
1.0
 10
-42.23309404024769
 20
3.822108359133124
 30
0.0
 10
-42.2261518937172
 20
4.326138766739918
 30
0.0
 10
-42.2126289837336
 20
5.307961579196267
 30
0.0
 10
-42.07469442201707
 20
6.735286866105533
 30
0.0
 10
-41.86277896036353
 20
8.075689268773596
 30
0.0
 10
-41.55288044291084
 20
9.32677218199586
 30
0.0
 10
-41.15477326053832
 20
10.49078807374446
 30
0.0
 10
-40.65992577788327
 20
11.56769079750755
 30
0.0
 10
-40.07387054349734
 20
12.560196271022
 30
0.0
 10
-39.59997666203784
 20
13.15136526012315
 30
0.0
 10
-39.36556772445822
 20
13.44378366873064
 30
0.0
  0
SPLINE
  5
F5
330
1F
100
AcDbEntity
  8
0
  6
Continuous
 62
     7
370
    15
100
AcDbSpline
210
0.0
220
0.0
230
1.0
 70
     8
 71
     3
 72
    11
 73
     7
 74
     0
 42
0.000000001
 43
0.00000001
 40
0.0
 40
0.0
 40
0.0
 40
0.0
 40
0.2783893857605286
 40
0.5435270621760855
 40
0.7778778733529419
 40
1.0
 40
1.0
 40
1.0
 40
1.0
 10
51.53782778637768
 20
7.174583978328171
 30
0.0
 10
51.52289090429305
 20
7.066924246145689
 30
0.0
 10
51.49372815580914
 20
6.856729529892594
 30
0.0
 10
51.46639990443887
 20
6.554158255171941
 30
0.0
 10
51.45246669329368
 20
6.272746860732074
 30
0.0
 10
51.44842650374764
 20
6.094587587161726
 30
0.0
 10
51.44646052631576
 20
6.007894349845198
 30
0.0
  0
SPLINE
  5
F6
330
1F
100
AcDbEntity
  8
0
  6
Continuous
 62
     7
370
    15
100
AcDbSpline
210
0.0
220
0.0
230
1.0
 70
     8
 71
     3
 72
    11
 73
     7
 74
     0
 42
0.000000001
 43
0.00000001
 40
0.0
 40
0.0
 40
0.0
 40
0.0
 40
0.2574799497025557
 40
0.505365699469182
 40
0.7503293147070322
 40
1.0
 40
1.0
 40
1.0
 40
1.0
 10
51.9806075851393
 20
8.538064628482969
 30
0.0
 10
51.93488869747381
 20
8.423719404723212
 30
0.0
 10
51.84515449614782
 20
8.199289680960003
 30
0.0
 10
51.73262846142117
 20
7.858359518825112
 30
0.0
 10
51.63573699100384
 20
7.516764316140751
 30
0.0
 10
51.57067058426441
 20
7.289365420159964
 30
0.0
 10
51.53782778637768
 20
7.174583978328172
 30
0.0
  0
SPLINE
  5
F7
330
1F
100
AcDbEntity
  8
0
  6
Continuous
 62
     7
370
    15
100
AcDbSpline
210
0.0
220
0.0
230
1.0
 70
     8
 71
     3
 72
    11
 73
     7
 74
     0
 42
0.000000001
 43
0.00000001
 40
0.0
 40
0.0
 40
0.0
 40
0.0
 40
0.2733145978536115
 40
0.5273523141239138
 40
0.7670198382881983
 40
1.0
 40
1.0
 40
1.0
 40
1.0
 10
53.96960255417952
 20
11.25799767801857
 30
0.0
 10
53.74154279842115
 20
11.04775576869356
 30
0.0
 10
53.30150834397856
 20
10.64210031421338
 30
0.0
 10
52.75080939803217
 20
9.966134448332534
 30
0.0
 10
52.30258063703943
 20
9.27148208117091
 30
0.0
 10
52.08691480353346
 20
8.780220202860596
 30
0.0
 10
51.9806075851393
 20
8.538064628482969
 30
0.0
  0
SPLINE
  5
F8
330
1F
100
AcDbEntity
  8
0
  6
Continuous
 62
     7
370
    15
100
AcDbSpline
210
0.0
220
0.0
230
1.0
 70
     8
 71
     3
 72
    15
 73
    11
 74
     0
 42
0.000000001
 43
0.00000001
 40
0.0
 40
0.0
 40
0.0
 40
0.0
 40
0.1495895460828424
 40
0.2898573359876482
 40
0.4216726090481256
 40
0.547612952297428
 40
0.6666445506852624
 40
0.7798054315050931
 40
0.8914534303731539
 40
1.0
 40
1.0
 40
1.0
 40
1.0
 10
57.95462074303402
 20
12.51605456656346
 30
0.0
 10
57.7413190412629
 20
12.51159907082505
 30
0.0
 10
57.32800765249262
 20
12.50296572605559
 30
0.0
 10
56.72856501884382
 20
12.44824859064413
 30
0.0
 10
56.16879379377978
 20
12.3503210989959
 30
0.0
 10
55.64942695698627
 20
12.20995474368014
 30
0.0
 10
55.16917238899418
 20
12.03451222399138
 30
0.0
 10
54.7255822068234
 20
11.82347614170546
 30
0.0
 10
54.32491624419459
 20
11.56434280308063
 30
0.0
 10
54.08692307698645
 20
11.35914933989265
 30
0.0
 10
53.96960255417952
 20
11.25799767801857
 30
0.0
  0
SPLINE
  5
FA
330
1F
100
AcDbEntity
  8
0
  6
Continuous
 62
     7
370
    15
100
AcDbSpline
210
0.0
220
0.0
230
1.0
 70
     8
 71
     3
 72
    11
 73
     7
 74
     0
 42
0.000000001
 43
0.00000001
 40
0.0
 40
0.0
 40
0.0
 40
0.0
 40
0.26522827057719
 40
0.5508587158141143
 40
0.7990618829283499
 40
1.0
 40
1.0
 40
1.0
 40
1.0
 10
58.67853057275539
 20
12.4738850619195
 30
0.0
 10
58.64806021910191
 20
12.47410603256299
 30
0.0
 10
58.58477563843696
 20
12.47456497159179
 30
0.0
 10
58.49325067929524
 20
12.4710827152206
 30
0.0
 10
58.40814751147269
 20
12.48213802930402
 30
0.0
 10
58.36187573554908
 20
12.50557103928769
 30
0.0
 10
58.34117453560369
 20
12.51605456656346
 30
0.0
  0
SPLINE
  5
FB
330
1F
100
AcDbEntity
  8
0
  6
Continuous
 62
     7
370
    15
100
AcDbSpline
210
0.0
220
0.0
230
1.0
 70
     8
 71
     3
 72
    11
 73
     7
 74
     0
 42
0.000000001
 43
0.00000001
 40
0.0
 40
0.0
 40
0.0
 40
0.0
 40
0.2554383652692404
 40
0.5077423987654917
 40
0.7500725095777657
 40
1.0
 40
1.0
 40
1.0
 40
1.0
 10
59.45866640866869
 20
12.37548955108359
 30
0.0
 10
59.39327650797138
 20
12.39071663398089
 30
0.0
 10
59.26329906703336
 20
12.4209839573265
 30
0.0
 10
59.06766080453794
 20
12.44519963043089
 30
0.0
 10
58.87360465560439
 20
12.47068621165662
 30
0.0
 10
58.74422089248957
 20
12.47280786348555
 30
0.0
 10
58.67853057275539
 20
12.4738850619195
 30
0.0
  0
SPLINE
  5
FC
330
1F
100
AcDbEntity
  8
0
  6
Continuous
 62
     7
370
    15
100
AcDbSpline
210
0.0
220
0.0
230
1.0
 70
     8
 71
     3
 72
    11
 73
     7
 74
     0
 42
0.000000001
 43
0.00000001
 40
0.0
 40
0.0
 40
0.0
 40
0.0
 40
0.2580280637958518
 40
0.5068331933855903
 40
0.7511868347177422
 40
1.0
 40
1.0
 40
1.0
 40
1.0
 10
62.61435100619193
 20
10.91361339009287
 30
0.0
 10
62.37245335376512
 20
11.09546867742192
 30
0.0
 10
61.89730441900055
 20
11.45267903142418
 30
0.0
 10
61.12289260385933
 20
11.87661834254355
 30
0.0
 10
60.31070414005794
 20
12.19662493750615
 30
0.0
 10
59.74438598725107
 20
12.31550966975683
 30
0.0
 10
59.4586664086687
 20
12.37548955108359
 30
0.0
  0
SPLINE
  5
FD
330
1F
100
AcDbEntity
  8
0
  6
Continuous
 62
     7
370
    15
100
AcDbSpline
210
0.0
220
0.0
230
1.0
 70
     8
 71
     3
 72
    15
 73
    11
 74
     0
 42
0.000000001
 43
0.00000001
 40
0.0
 40
0.0
 40
0.0
 40
0.0
 40
0.1472575033978302
 40
0.2869971503824689
 40
0.4167227606468423
 40
0.5413635106249028
 40
0.6602224077870815
 40
0.7756987691932407
 40
0.8874602781303549
 40
1.0
 40
1.0
 40
1.0
 40
1.0
 10
64.07622716718262
 20
7.174583978328171
 30
0.0
 10
64.07304626947399
 20
7.378642468789424
 30
0.0
 10
64.06684686667977
 20
7.776341763714394
 30
0.0
 10
63.99418723498057
 20
8.349847071536363
 30
0.0
 10
63.88424048456282
 20
8.885318070839258
 30
0.0
 10
63.72137033312196
 20
9.376906596516582
 30
0.0
 10
63.5192045344757
 20
9.832468188518128
 30
0.0
 10
63.26481321836891
 20
10.24012208772358
 30
0.0
 10
62.96781410523452
 20
10.60792920056444
 30
0.0
 10
62.73244424438454
 20
10.81148325004863
 30
0.0
 10
62.61435100619193
 20
10.91361339009287
 30
0.0
  0
SPLINE
  5
FE
330
1F
100
AcDbEntity
  8
0
  6
Continuous
 62
     7
370
    15
100
AcDbSpline
210
0.0
220
0.0
230
1.0
 70
     8
 71
     3
 72
    15
 73
    11
 74
     0
 42
0.000000001
 43
0.00000001
 40
0.0
 40
0.0
 40
0.0
 40
0.0
 40
0.1180229709448302
 40
0.2342189148852959
 40
0.3519014788771164
 40
0.4711642962797506
 40
0.5949389931629859
 40
0.7243225553416893
 40
0.8579675178934325
 40
1.0
 40
1.0
 40
1.0
 40
1.0
 10
62.42458823529408
 20
3.140368034055725
 30
0.0
 10
62.55619577492141
 20
3.259370989986814
 30
0.0
 10
62.8173735344327
 20
3.495534704416197
 30
0.0
 10
63.16085165359387
 20
3.900417950159141
 30
0.0
 10
63.43884619111129
 20
4.354074455685073
 30
0.0
 10
63.67359411980517
 20
4.8434553032856
 30
0.0
 10
63.85806448475521
 20
5.373341172124727
 30
0.0
 10
63.97940485793303
 20
5.942627118247007
 30
0.0
 10
64.060236766484
 20
6.54678156006181
 30
0.0
 10
64.07079000575654
 20
6.961114462701676
 30
0.0
 10
64.07622716718262
 20
7.174583978328171
 30
0.0
  0
SPLINE
  5
FF
330
1F
100
AcDbEntity
  8
0
  6
Continuous
 62
     7
370
    15
100
AcDbSpline
210
0.0
220
0.0
230
1.0
 70
     8
 71
     3
 72
    11
 73
     7
 74
     0
 42
0.000000001
 43
0.00000001
 40
0.0
 40
0.0
 40
0.0
 40
0.0
 40
0.2452518726668525
 40
0.4899023964205629
 40
0.7406561170777638
 40
1.0
 40
1.0
 40
1.0
 40
1.0
 10
58.87532159442723
 20
1.446559597523215
 30
0.0
 10
59.19651595405178
 20
1.507284595179999
 30
0.0
 10
59.83811711609708
 20
1.628585694948165
 30
0.0
 10
60.76142026540034
 20
1.984942768828428
 30
0.0
 10
61.64621954306154
 20
2.471677056172774
 30
0.0
 10
62.1622353955655
 20
2.914982585361369
 30
0.0
 10
62.42458823529408
 20
3.140368034055725
 30
0.0
  0
SPLINE
  5
101
330
1F
100
AcDbEntity
  8
0
  6
Continuous
 62
     7
370
    15
100
AcDbSpline
210
0.0
220
0.0
230
1.0
 70
     8
 71
     3
 72
    11
 73
     7
 74
     0
 42
0.000000001
 43
0.00000001
 40
0.0
 40
0.0
 40
0.0
 40
0.0
 40
0.1982857324225754
 40
0.396571464845039
 40
0.6577291970329922
 40
1.0
 40
1.0
 40
1.0
 40
1.0
 10
58.39037229102163
 20
1.39736184210526
 30
0.0
 10
58.40676197157159
 20
1.397536198695702
 30
0.0
 10
58.43954133267148
 20
1.397884911876585
 30
0.0
 10
58.49409766944309
 20
1.39499314001717
 30
0.0
 10
58.55952104777034
 20
1.41106978131382
 30
0.0
 10
58.60406629819857
 20
1.433714999455436
 30
0.0
 10
58.62933281733744
 20
1.446559597523215
 30
0.0
  0
SPLINE
  5
103
330
1F
100
AcDbEntity
  8
0
  6
Continuous
 62
     7
370
    15
100
AcDbSpline
210
0.0
220
0.0
230
1.0
 70
     8
 71
     3
 72
    11
 73
     7
 74
     0
 42
0.000000001
 43
0.00000001
 40
0.0
 40
0.0
 40
0.0
 40
0.0
 40
0.2956742757321554
 40
0.548620326391492
 40
0.7834748384802294
 40
0.9999999999999999
 40
0.9999999999999999
 40
0.9999999999999999
 40
0.9999999999999999
 10
57.17448490712072
 20
1.537926857585137
 30
0.0
 10
57.20591773497493
 20
1.510251083723653
 30
0.0
 10
57.26424099706484
 20
1.458898993483719
 30
0.0
 10
57.36767507617783
 20
1.413670372134159
 30
0.0
 10
57.46717036555161
 20
1.404266566615119
 30
0.0
 10
57.53060793299728
 20
1.399600254692077
 30
0.0
 10
57.56103869969039
 20
1.39736184210526
 30
0.0
  0
SPLINE
  5
107
330
1F
100
AcDbEntity
  8
0
  6
Continuous
 62
     7
370
    15
100
AcDbSpline
210
0.0
220
0.0
230
1.0
 70
     8
 71
     3
 72
    11
 73
     7
 74
     0
 42
0.000000001
 43
0.00000001
 40
0.0
 40
0.0
 40
0.0
 40
0.0
 40
0.2281802114991816
 40
0.4674169351782922
 40
0.7228839632022305
 40
1.0
 40
1.0
 40
1.0
 40
1.0
 10
62.61435100619193
 20
-4.000334752321984
 30
0.0
 10
62.29153806474692
 20
-3.81572778793507
 30
0.0
 10
61.63027022414514
 20
-3.437568696314591
 30
0.0
 10
60.50689173859971
 20
-3.071622467107707
 30
0.0
 10
59.27308581422261
 20
-2.820197892117558
 30
0.0
 10
58.40585974583555
 20
-2.796682831471965
 30
0.0
 10
57.95462074303402
 20
-2.784447368421056
 30
0.0
  0
SPLINE
  5
108
330
1F
100
AcDbEntity
  8
0
  6
Continuous
 62
     7
370
    15
100
AcDbSpline
210
0.0
220
0.0
230
1.0
 70
     8
 71
     3
 72
    15
 73
    11
 74
     0
 42
0.000000001
 43
0.00000001
 40
0.0
 40
0.0
 40
0.0
 40
0.0
 40
0.1393709639149081
 40
0.2717995153336654
 40
0.397688892324629
 40
0.520205866059077
 40
0.6404600970668008
 40
0.758489660332514
 40
0.8780222563482272
 40
1.0
 40
1.0
 40
1.0
 40
1.0
 10
64.41358320433434
 20
-7.640968653250776
 30
0.0
 10
64.40827496261043
 20
-7.443905698463186
 30
0.0
 10
64.39792289581473
 20
-7.059595982171142
 30
0.0
 10
64.3149510502503
 20
-6.501825279985215
 30
0.0
 10
64.16562546481406
 20
-5.982894056255596
 30
0.0
 10
63.95886718291951
 20
-5.503681137760086
 30
0.0
 10
63.71053677386869
 20
-5.055929221462196
 30
0.0
 10
63.39171684906667
 20
-4.661596751383077
 30
0.0
 10
63.03704217461344
 20
-4.294582337785973
 30
0.0
 10
62.7561958626031
 20
-4.099077072075987
 30
0.0
 10
62.61435100619195
 20
-4.000334752321985
 30
0.0
  0
SPLINE
  5
10C
330
1F
100
AcDbEntity
  8
0
  6
Continuous
 62
     7
370
    15
100
AcDbSpline
210
0.0
220
0.0
230
1.0
 70
     8
 71
     3
 72
    11
 73
     7
 74
     0
 42
0.000000001
 43
0.00000001
 40
0.0
 40
0.0
 40
0.0
 40
0.0
 40
0.243944244517996
 40
0.4937819142430955
 40
0.746867942093918
 40
1.0
 40
1.0
 40
1.0
 40
1.0
 10
67.91365208978326
 20
-2.833645123839013
 30
0.0
 10
68.07980895551027
 20
-3.148275585775528
 30
0.0
 10
68.4161368544752
 20
-3.785137636286996
 30
0.0
 10
68.753942297816
 20
-4.822482286657345
 30
0.0
 10
68.99529461634556
 20
-5.901033654636939
 30
0.0
 10
69.01919345631245
 20
-6.639272898081106
 30
0.0
 10
69.03114396284828
 20
-7.008426083591333
 30
0.0
  0
SPLINE
  5
10D
330
1F
100
AcDbEntity
  8
0
  6
Continuous
 62
     7
370
    15
100
AcDbSpline
210
0.0
220
0.0
230
1.0
 70
     8
 71
     3
 72
    11
 73
     7
 74
     0
 42
0.000000001
 43
0.00000001
 40
0.0
 40
0.0
 40
0.0
 40
0.0
 40
0.2501234241594839
 40
0.493206745272663
 40
0.7394229857484392
 40
1.0
 40
1.0
 40
1.0
 40
1.0
 10
64.800136996904
 20
-0.1137120743034091
 30
0.0
 10
65.11506762864174
 20
-0.2681752859562913
 30
0.0
 10
65.73606469194357
 20
-0.5727541079506083
 30
0.0
 10
66.56760943791578
 20
-1.196029604406949
 30
0.0
 10
67.32450690212909
 20
-1.932003487858852
 30
0.0
 10
67.71359522002223
 20
-2.527473390418542
 30
0.0
 10
67.91365208978324
 20
-2.833645123839013
 30
0.0
  0
SPLINE
  5
10E
330
1F
100
AcDbEntity
  8
0
  6
Continuous
 62
     7
370
    15
100
AcDbSpline
210
0.0
220
0.0
230
1.0
 70
     8
 71
     3
 72
    11
 73
     7
 74
     0
 42
0.000000001
 43
0.00000001
 40
0.0
 40
0.0
 40
0.0
 40
0.0
 40
0.2602981192230562
 40
0.5080437487119179
 40
0.7510870761638289
 40
1.0
 40
1.0
 40
1.0
 40
1.0
 10
67.71686106811144
 20
2.803011996904022
 30
0.0
 10
67.5453414259089
 20
2.479454011650829
 30
0.0
 10
67.21057342119802
 20
1.847941143850025
 30
0.0
 10
66.52617479497022
 20
1.037430807588002
 30
0.0
 10
65.72843477697407
 20
0.361175813215116
 30
0.0
 10
65.11202109518507
 20
0.0458380008590435
 30
0.0
 10
64.800136996904
 20
-0.1137120743034091
 30
0.0
  0
SPLINE
  5
10F
330
1F
100
AcDbEntity
  8
0
  6
Continuous
 62
     7
370
    15
100
AcDbSpline
210
0.0
220
0.0
230
1.0
 70
     8
 71
     3
 72
    11
 73
     7
 74
     0
 42
0.000000001
 43
0.00000001
 40
0.0
 40
0.0
 40
0.0
 40
0.0
 40
0.2552023298455236
 40
0.507064694673739
 40
0.7531753913845435
 40
1.0
 40
1.0
 40
1.0
 40
1.0
 10
68.6375619195046
 20
7.174583978328171
 30
0.0
 10
68.62529283509423
 20
6.791920273077717
 30
0.0
 10
68.60091523813325
 20
6.031600980604981
 30
0.0
 10
68.40962174973546
 20
4.916243241119671
 30
0.0
 10
68.12347074680191
 20
3.835284455938431
 30
0.0
 10
67.85252842844092
 20
3.147434884497465
 30
0.0
 10
67.71686106811146
 20
2.803011996904023
 30
0.0
  0
SPLINE
  5
111
330
1F
100
AcDbEntity
  8
0
  6
Continuous
 62
     7
370
    15
100
AcDbSpline
210
0.0
220
0.0
230
1.0
 70
     8
 71
     3
 72
    15
 73
    11
 74
     0
 42
0.000000001
 43
0.00000001
 40
0.0
 40
0.0
 40
0.0
 40
0.0
 40
0.1339252798957362
 40
0.2623085973365374
 40
0.3877824174269477
 40
0.5112855415583367
 40
0.6330470746729888
 40
0.7538726149906527
 40
0.8757769601800954
 40
1.0
 40
1.0
 40
1.0
 40
1.0
 10
65.53107507739935
 20
14.36448452012383
 30
0.0
 10
65.78036131272863
 20
14.13807750797998
 30
0.0
 10
66.26861806884996
 20
13.69463243301844
 30
0.0
 10
66.8944692841069
 20
12.94506319753878
 30
0.0
 10
67.43586227650786
 20
12.16497094951874
 30
0.0
 10
67.86799559976147
 20
11.33811088016036
 30
0.0
 10
68.22054210897518
 20
10.48661351782803
 30
0.0
 10
68.45445794051774
 20
9.599623963335484
 30
0.0
 10
68.61066999084127
 20
8.68883649084642
 30
0.0
 10
68.62854182150765
 20
8.070174104897854
 30
0.0
 10
68.6375619195046
 20
7.757928792569653
 30
0.0
  0
SPLINE
  5
112
330
1F
100
AcDbEntity
  8
0
  6
Continuous
 62
     7
370
    15
100
AcDbSpline
210
0.0
220
0.0
230
1.0
 70
     8
 71
     3
 72
    15
 73
    11
 74
     0
 42
0.000000001
 43
0.00000001
 40
0.0
 40
0.0
 40
0.0
 40
0.0
 40
0.129288680855828
 40
0.2559345435436745
 40
0.3793527308292085
 40
0.5019147984343477
 40
0.6243682315308345
 40
0.7475197193965349
 40
0.8719769767622081
 40
1.0
 40
1.0
 40
1.0
 40
1.0
 10
58.29197678018573
 20
17.13361532507739
 30
0.0
 10
58.63434620295003
 20
17.12539052422013
 30
0.0
 10
59.31208660031864
 20
17.10910904745661
 30
0.0
 10
60.31093737109413
 20
16.98335893946179
 30
0.0
 10
61.27277176808066
 20
16.7590330078412
 30
0.0
 10
62.20577749040283
 20
16.46906976649914
 30
0.0
 10
63.09986453948253
 20
16.07657212782575
 30
0.0
 10
63.96280858569695
 20
15.60934743475898
 30
0.0
 10
64.7771375808211
 20
15.03348710579536
 30
0.0
 10
65.27740748326842
 20
14.58957516377117
 30
0.0
 10
65.53107507739935
 20
14.36448452012383
 30
0.0
  0
SPLINE
  5
113
330
1F
100
AcDbEntity
  8
0
  6
Continuous
 62
     7
370
    15
100
AcDbSpline
210
0.0
220
0.0
230
1.0
 70
     8
 71
     3
 72
    15
 73
    11
 74
     0
 42
0.000000001
 43
0.00000001
 40
0.0
 40
0.0
 40
0.0
 40
0.0
 40
0.1140597770452599
 40
0.2280145212761624
 40
0.3439555039526428
 40
0.4633675581968156
 40
0.5877737985902676
 40
0.7181805610236107
 40
0.8550235169357834
 40
1.0
 40
1.0
 40
1.0
 40
1.0
 10
49.69642608359131
 20
13.44378366873064
 30
0.0
 10
49.94030012508535
 20
13.71777515468069
 30
0.0
 10
50.42782363480504
 20
14.26550581943427
 30
0.0
 10
51.28622640932696
 20
14.9666349974208
 30
0.0
 10
52.22334998338027
 20
15.58741700377227
 30
0.0
 10
53.26761681736362
 20
16.08844432976462
 30
0.0
 10
54.39629091449497
 20
16.50616191066985
 30
0.0
 10
55.61671795120281
 20
16.81775004102359
 30
0.0
 10
56.92388065829235
 20
17.03965326061229
 30
0.0
 10
57.82725405439777
 20
17.10169775289799
 30
0.0
 10
58.29197678018573
 20
17.13361532507739
 30
0.0
  0
SPLINE
  5
114
330
1F
100
AcDbEntity
  8
0
  6
Continuous
 62
     7
370
    15
100
AcDbSpline
210
0.0
220
0.0
230
1.0
 70
     8
 71
     3
 72
    15
 73
    11
 74
     0
 42
0.000000001
 43
0.00000001
 40
0.0
 40
0.0
 40
0.0
 40
0.0
 40
0.1474332301227745
 40
0.2871916187278766
 40
0.4191528743226458
 40
0.5441734908592348
 40
0.6638344842758857
 40
0.7785435934027762
 40
0.8904578366135962
 40
1.0
 40
1.0
 40
1.0
 40
1.0
 10
46.82889976780184
 20
3.822108359133124
 30
0.0
 10
46.83584191433234
 20
4.326138766739919
 30
0.0
 10
46.84936482431591
 20
5.307961579196272
 30
0.0
 10
46.98729938603247
 20
6.735286866105526
 30
0.0
 10
47.199214847686
 20
8.075689268773603
 30
0.0
 10
47.5091133651387
 20
9.326772181995853
 30
0.0
 10
47.9072205475112
 20
10.49078807374447
 30
0.0
 10
48.40206803016625
 20
11.56769079750754
 30
0.0
 10
48.98812326455219
 20
12.56019627102201
 30
0.0
 10
49.4620171460117
 20
13.15136526012316
 30
0.0
 10
49.69642608359131
 20
13.44378366873064
 30
0.0
  0
LINE
  5
118
330
1F
100
AcDbEntity
  8
0
  6
Continuous
 62
     7
370
    15
100
AcDbLine
 10
78.1889547214
 20
-12.0125406347
 30
0.0
 11
78.3365479876
 21
-12.0125406347
 31
0.0
  0
LINE
  5
119
330
1F
100
AcDbEntity
  8
0
  6
Continuous
 62
     7
370
    15
100
AcDbLine
 10
75.370626161
 20
-15.0276602167
 30
0.0
 11
75.370626161
 21
-14.9292647059
 31
0.0
  0
LINE
  5
11A
330
1F
100
AcDbEntity
  8
0
  6
Continuous
 62
     7
370
    15
100
AcDbLine
 10
42.4292147833
 20
16.451875
 30
0.0
 11
42.4292147833
 21
-6.1369229876
 31
0.0
  0
LINE
  5
11B
330
1F
100
AcDbEntity
  8
0
  6
Continuous
 62
     7
370
    15
100
AcDbLine
 10
37.4251002322
 20
16.451875
 30
0.0
 11
42.4292147833
 21
16.451875
 31
0.0
  0
LINE
  5
11C
330
1F
100
AcDbEntity
  8
0
  6
Continuous
 62
     7
370
    15
100
AcDbLine
 10
37.4251002322
 20
-7.2544148607
 30
0.0
 11
37.4251002322
 21
16.451875
 31
0.0
  0
LINE
  5
11D
330
1F
100
AcDbEntity
  8
0
  6
Continuous
 62
     7
370
    15
100
AcDbLine
 10
24.4579775542
 20
16.451875
 30
0.0
 11
24.4579775542
 21
-5.3567871517
 31
0.0
  0
LINE
  5
11E
330
1F
100
AcDbEntity
  8
0
  6
Continuous
 62
     7
370
    15
100
AcDbLine
 10
19.4538630031
 20
16.451875
 30
0.0
 11
24.4579775542
 21
16.451875
 31
0.0
  0
LINE
  5
11F
330
1F
100
AcDbEntity
  8
0
  6
Continuous
 62
     7
370
    15
100
AcDbLine
 10
19.4538630031
 20
-6.621872291
 30
0.0
 11
19.4538630031
 21
16.451875
 31
0.0
  0
LINE
  5
120
330
1F
100
AcDbEntity
  8
0
  6
Continuous
 62
     7
370
    15
100
AcDbLine
 10
-10.8730390867
 20
-12.0125406347
 30
0.0
 11
-10.7254458204
 21
-12.0125406347
 31
0.0
  0
LINE
  5
121
330
1F
100
AcDbEntity
  8
0
  6
Continuous
 62
     7
370
    15
100
AcDbLine
 10
-13.6913676471
 20
-15.0276602167
 30
0.0
 11
-13.6913676471
 21
-14.9292647059
 31
0.0
  0
LINE
  5
122
330
1F
100
AcDbEntity
  8
0
  6
Continuous
 62
     7
370
    15
100
AcDbLine
 10
-51.3557635449
 20
-12.0125406347
 30
0.0
 11
-51.2081702786
 21
-12.0125406347
 31
0.0
  0
LINE
  5
123
330
1F
100
AcDbEntity
  8
0
  6
Continuous
 62
     7
370
    15
100
AcDbLine
 10
-54.1740921053
 20
-15.0276602167
 30
0.0
 11
-54.1740921053
 21
-14.9292647059
 31
0.0
  0
LINE
  5
124
330
1F
100
AcDbEntity
  8
0
  6
Continuous
 62
     7
370
    15
100
AcDbLine
 10
10.0
 20
-25.0
 30
0.0
 11
101.0
 21
-25.0
 31
0.0
  0
LINE
  5
125
330
1F
100
AcDbEntity
  8
0
  6
Continuous
 62
     7
370
    15
100
AcDbLine
 10
10.0
 20
-31.0
 30
0.0
 11
10.0
 21
-25.0
 31
0.0
  0
LINE
  5
126
330
1F
100
AcDbEntity
  8
0
  6
Continuous
 62
     7
370
    15
100
AcDbLine
 10
-10.0
 20
-31.0
 30
0.0
 11
10.0
 21
-31.0
 31
0.0
  0
LINE
  5
127
330
1F
100
AcDbEntity
  8
0
  6
Continuous
 62
     7
370
    15
100
AcDbLine
 10
-10.0
 20
-25.0
 30
0.0
 11
-10.0
 21
-31.0
 31
0.0
  0
LINE
  5
128
330
1F
100
AcDbEntity
  8
0
  6
Continuous
 62
     7
370
    15
100
AcDbLine
 10
-101.0
 20
-25.0
 30
0.0
 11
-10.0
 21
-25.0
 31
0.0
  0
LINE
  5
129
330
1F
100
AcDbEntity
  8
0
  6
Continuous
 62
     7
370
    15
100
AcDbLine
 10
-101.0
 20
-10.0
 30
0.0
 11
-101.0
 21
-25.0
 31
0.0
  0
LINE
  5
12A
330
1F
100
AcDbEntity
  8
0
  6
Continuous
 62
     7
370
    15
100
AcDbLine
 10
-101.0
 20
-10.0
 30
0.0
 11
-95.0
 21
-10.0
 31
0.0
  0
LINE
  5
12B
330
1F
100
AcDbEntity
  8
0
  6
Continuous
 62
     7
370
    15
100
AcDbLine
 10
-95.0
 20
-10.0
 30
0.0
 11
-95.0
 21
10.0
 31
0.0
  0
LINE
  5
12C
330
1F
100
AcDbEntity
  8
0
  6
Continuous
 62
     7
370
    15
100
AcDbLine
 10
-95.0
 20
10.0
 30
0.0
 11
-101.0
 21
10.0
 31
0.0
  0
LINE
  5
12D
330
1F
100
AcDbEntity
  8
0
  6
Continuous
 62
     7
370
    15
100
AcDbLine
 10
-101.0
 20
25.0
 30
0.0
 11
-101.0
 21
10.0
 31
0.0
  0
LINE
  5
12E
330
1F
100
AcDbEntity
  8
0
  6
Continuous
 62
     7
370
    15
100
AcDbLine
 10
-10.0
 20
25.0
 30
0.0
 11
-101.0
 21
25.0
 31
0.0
  0
LINE
  5
12F
330
1F
100
AcDbEntity
  8
0
  6
Continuous
 62
     7
370
    15
100
AcDbLine
 10
-10.0
 20
31.0
 30
0.0
 11
-10.0
 21
25.0
 31
0.0
  0
LINE
  5
130
330
1F
100
AcDbEntity
  8
0
  6
Continuous
 62
     7
370
    15
100
AcDbLine
 10
10.0
 20
31.0
 30
0.0
 11
-10.0
 21
31.0
 31
0.0
  0
LINE
  5
131
330
1F
100
AcDbEntity
  8
0
  6
Continuous
 62
     7
370
    15
100
AcDbLine
 10
10.0
 20
25.0
 30
0.0
 11
10.0
 21
31.0
 31
0.0
  0
LINE
  5
132
330
1F
100
AcDbEntity
  8
0
  6
Continuous
 62
     7
370
    15
100
AcDbLine
 10
101.0
 20
10.0
 30
0.0
 11
101.0
 21
25.0
 31
0.0
  0
LINE
  5
133
330
1F
100
AcDbEntity
  8
0
  6
Continuous
 62
     7
370
    15
100
AcDbLine
 10
101.0
 20
10.0
 30
0.0
 11
95.0
 21
10.0
 31
0.0
  0
LINE
  5
134
330
1F
100
AcDbEntity
  8
0
  6
Continuous
 62
     7
370
    15
100
AcDbLine
 10
95.0
 20
10.0
 30
0.0
 11
95.0
 21
-10.0
 31
0.0
  0
LINE
  5
135
330
1F
100
AcDbEntity
  8
0
  6
Continuous
 62
     7
370
    15
100
AcDbLine
 10
95.0
 20
-10.0
 30
0.0
 11
101.0
 21
-10.0
 31
0.0
  0
LINE
  5
136
330
1F
100
AcDbEntity
  8
0
  6
Continuous
 62
     7
370
    15
100
AcDbLine
 10
101.0
 20
-25.0
 30
0.0
 11
101.0
 21
-10.0
 31
0.0
  0
LINE
  5
137
330
1F
100
AcDbEntity
  8
0
  6
Continuous
 62
     7
370
    15
100
AcDbLine
 10
-78.4918397833
 20
4.8904024768
 30
0.0
 11
-78.4918397833
 21
-17.6
 31
0.0
  0
LINE
  5
138
330
1F
100
AcDbEntity
  8
0
  6
Continuous
 62
     7
370
    15
100
AcDbLine
 10
-64.3018014706
 20
3.049000774
 30
0.0
 11
-64.3018014706
 21
3.8221083591
 31
0.0
  0
LINE
  5
139
330
1F
100
AcDbEntity
  8
0
  6
Continuous
 62
     7
370
    15
100
AcDbLine
 10
-64.350999226
 20
2.6554187307
 30
0.0
 11
-64.350999226
 21
2.8522097523
 31
0.0
  0
LINE
  5
13A
330
1F
100
AcDbEntity
  8
0
  6
Continuous
 62
     7
370
    15
100
AcDbLine
 10
-74.9877941176
 20
2.6554187307
 30
0.0
 11
-64.350999226
 21
2.6554187307
 31
0.0
  0
LINE
  5
13B
330
1F
100
AcDbEntity
  8
0
  6
Continuous
 62
     7
370
    15
100
AcDbLine
 10
-74.9877941176
 20
2.6554187307
 30
0.0
 11
-74.9877941176
 21
-1.9059160217
 31
0.0
  0
LINE
  5
13C
330
1F
100
AcDbEntity
  8
0
  6
Continuous
 62
     7
370
    15
100
AcDbLine
 10
-64.350999226
 20
-1.9059160217
 30
0.0
 11
-74.9877941176
 21
-1.9059160217
 31
0.0
  0
LINE
  5
13D
330
1F
100
AcDbEntity
  8
0
  6
Continuous
 62
     7
370
    15
100
AcDbLine
 10
-64.350999226
 20
-17.6
 30
0.0
 11
-64.350999226
 21
-1.9059160217
 31
0.0
  0
LINE
  5
13E
330
1F
100
AcDbEntity
  8
0
  6
Continuous
 62
     7
370
    15
100
AcDbLine
 10
-59.7404667183
 20
-17.6
 30
0.0
 11
-64.350999226
 21
-17.6
 31
0.0
  0
LINE
  5
13F
330
1F
100
AcDbEntity
  8
0
  6
Continuous
 62
     7
370
    15
100
AcDbLine
 10
-59.7404667183
 20
4.2578599071
 30
0.0
 11
-59.7404667183
 21
-17.6
 31
0.0
  0
LINE
  5
140
330
1F
100
AcDbEntity
  8
0
  6
Continuous
 62
     7
370
    15
100
AcDbLine
 10
-83.102372291
 20
-17.6
 30
0.0
 11
-83.102372291
 21
4.9887979876
 31
0.0
  0
LINE
  5
141
330
1F
100
AcDbEntity
  8
0
  6
Continuous
 62
     7
370
    15
100
AcDbLine
 10
-78.4918397833
 20
-17.6
 30
0.0
 11
-83.102372291
 21
-17.6
 31
0.0
  0
LINE
  5
142
330
1F
100
AcDbEntity
  8
0
  6
Continuous
 62
     7
370
    15
100
AcDbLine
 10
-37.6155332817
 20
6.0078943498
 30
0.0
 11
-37.6155332817
 21
-17.6
 31
0.0
  0
LINE
  5
143
330
1F
100
AcDbEntity
  8
0
  6
Continuous
 62
     7
370
    15
100
AcDbLine
 10
-30.7208192724
 20
12.5160545666
 30
0.0
 11
-31.107373065
 21
12.5160545666
 31
0.0
  0
LINE
  5
144
330
1F
100
AcDbEntity
  8
0
  6
Continuous
 62
     7
370
    15
100
AcDbLine
 10
-30.4326609907
 20
1.4465595975
 30
0.0
 11
-30.1866722136
 21
1.4465595975
 31
0.0
  0
LINE
  5
145
330
1F
100
AcDbEntity
  8
0
  6
Continuous
 62
     7
370
    15
100
AcDbLine
 10
-31.5009551084
 20
1.3973618421
 30
0.0
 11
-30.671621517
 21
1.3973618421
 31
0.0
  0
LINE
  5
146
330
1F
100
AcDbEntity
  8
0
  6
Continuous
 62
     7
370
    15
100
AcDbLine
 10
-33.7249338235
 20
1.5379268576
 30
0.0
 11
-31.8875089009
 21
1.5379268576
 31
0.0
  0
LINE
  5
147
330
1F
100
AcDbEntity
  8
0
  6
Continuous
 62
     7
370
    15
100
AcDbLine
 10
-33.7249338235
 20
1.5379268576
 30
0.0
 11
-33.7249338235
 21
-2.728669818
 31
0.0
  0
LINE
  5
148
330
1F
100
AcDbEntity
  8
0
  6
Continuous
 62
     7
370
    15
100
AcDbLine
 10
-31.107373065
 20
-2.7844473684
 30
0.0
 11
-33.7249338235
 21
-2.728669818
 31
0.0
  0
LINE
  5
149
330
1F
100
AcDbEntity
  8
0
  6
Continuous
 62
     7
370
    15
100
AcDbLine
 10
-24.6484106037
 20
-17.6
 30
0.0
 11
-24.6484106037
 21
-7.6409686533
 31
0.0
  0
LINE
  5
14A
330
1F
100
AcDbEntity
  8
0
  6
Continuous
 62
     7
370
    15
100
AcDbLine
 10
-20.0308498452
 20
-17.6
 30
0.0
 11
-24.6484106037
 21
-17.6
 31
0.0
  0
LINE
  5
14B
330
1F
100
AcDbEntity
  8
0
  6
Continuous
 62
     7
370
    15
100
AcDbLine
 10
-20.0308498452
 20
-7.0084260836
 30
0.0
 11
-20.0308498452
 21
-17.6
 31
0.0
  0
LINE
  5
14C
330
1F
100
AcDbEntity
  8
0
  6
Continuous
 62
     7
370
    15
100
AcDbLine
 10
-20.4244318885
 20
7.7579287926
 30
0.0
 11
-20.4244318885
 21
7.1745839783
 31
0.0
  0
LINE
  5
14D
330
1F
100
AcDbEntity
  8
0
  6
Continuous
 62
     7
370
    15
100
AcDbLine
 10
-42.2330940402
 20
-17.6
 30
0.0
 11
-42.2330940402
 21
3.8221083591
 31
0.0
  0
LINE
  5
14E
330
1F
100
AcDbEntity
  8
0
  6
Continuous
 62
     7
370
    15
100
AcDbLine
 10
-37.6155332817
 20
-17.6
 30
0.0
 11
-42.2330940402
 21
-17.6
 31
0.0
  0
LINE
  5
14F
330
1F
100
AcDbEntity
  8
0
  6
Continuous
 62
     7
370
    15
100
AcDbLine
 10
3.9776547988
 20
-17.6
 30
0.0
 11
3.9776547988
 21
12.2278962848
 31
0.0
  0
LINE
  5
150
330
1F
100
AcDbEntity
  8
0
  6
Continuous
 62
     7
370
    15
100
AcDbLine
 10
8.9817693498
 20
-17.6
 30
0.0
 11
3.9776547988
 21
-17.6
 31
0.0
  0
LINE
  5
151
330
1F
100
AcDbEntity
  8
0
  6
Continuous
 62
     7
370
    15
100
AcDbLine
 10
8.9817693498
 20
12.2278962848
 30
0.0
 11
8.9817693498
 21
-17.6
 31
0.0
  0
LINE
  5
152
330
1F
100
AcDbEntity
  8
0
  6
Continuous
 62
     7
370
    15
100
AcDbLine
 10
17.3875572755
 20
12.2278962848
 30
0.0
 11
8.9817693498
 21
12.2278962848
 31
0.0
  0
LINE
  5
153
330
1F
100
AcDbEntity
  8
0
  6
Continuous
 62
     7
370
    15
100
AcDbLine
 10
17.3875572755
 20
16.451875
 30
0.0
 11
17.3875572755
 21
12.2278962848
 31
0.0
  0
LINE
  5
154
330
1F
100
AcDbEntity
  8
0
  6
Continuous
 62
     7
370
    15
100
AcDbLine
 10
-4.4211048762
 20
16.451875
 30
0.0
 11
17.3875572755
 21
16.451875
 31
0.0
  0
LINE
  5
155
330
1F
100
AcDbEntity
  8
0
  6
Continuous
 62
     7
370
    15
100
AcDbLine
 10
-4.4211048762
 20
12.2278962848
 30
0.0
 11
-4.4211048762
 21
16.451875
 31
0.0
  0
LINE
  5
156
330
1F
100
AcDbEntity
  8
0
  6
Continuous
 62
     7
370
    15
100
AcDbLine
 10
3.9776547988
 20
12.2278962848
 30
0.0
 11
-4.4211048762
 21
12.2278962848
 31
0.0
  0
LINE
  5
157
330
1F
100
AcDbEntity
  8
0
  6
Continuous
 62
     7
370
    15
100
AcDbLine
 10
51.4464605263
 20
6.0078943498
 30
0.0
 11
51.4464605263
 21
-17.6
 31
0.0
  0
LINE
  5
158
330
1F
100
AcDbEntity
  8
0
  6
Continuous
 62
     7
370
    15
100
AcDbLine
 10
58.3411745356
 20
12.5160545666
 30
0.0
 11
57.954620743
 21
12.5160545666
 31
0.0
  0
LINE
  5
159
330
1F
100
AcDbEntity
  8
0
  6
Continuous
 62
     7
370
    15
100
AcDbLine
 10
58.6293328173
 20
1.4465595975
 30
0.0
 11
58.8753215944
 21
1.4465595975
 31
0.0
  0
LINE
  5
15A
330
1F
100
AcDbEntity
  8
0
  6
Continuous
 62
     7
370
    15
100
AcDbLine
 10
57.5610386997
 20
1.3973618421
 30
0.0
 11
58.390372291
 21
1.3973618421
 31
0.0
  0
LINE
  5
15B
330
1F
100
AcDbEntity
  8
0
  6
Continuous
 62
     7
370
    15
100
AcDbLine
 10
55.3370599845
 20
1.5379268576
 30
0.0
 11
57.1744849071
 21
1.5379268576
 31
0.0
  0
LINE
  5
15C
330
1F
100
AcDbEntity
  8
0
  6
Continuous
 62
     7
370
    15
100
AcDbLine
 10
55.3370599845
 20
1.5379268576
 30
0.0
 11
55.3370599845
 21
-2.728669818
 31
0.0
  0
LINE
  5
15D
330
1F
100
AcDbEntity
  8
0
  6
Continuous
 62
     7
370
    15
100
AcDbLine
 10
57.954620743
 20
-2.7844473684
 30
0.0
 11
55.3370599845
 21
-2.728669818
 31
0.0
  0
LINE
  5
15E
330
1F
100
AcDbEntity
  8
0
  6
Continuous
 62
     7
370
    15
100
AcDbLine
 10
64.4135832043
 20
-17.6
 30
0.0
 11
64.4135832043
 21
-7.6409686533
 31
0.0
  0
LINE
  5
15F
330
1F
100
AcDbEntity
  8
0
  6
Continuous
 62
     7
370
    15
100
AcDbLine
 10
69.0311439628
 20
-17.6
 30
0.0
 11
64.4135832043
 21
-17.6
 31
0.0
  0
LINE
  5
160
330
1F
100
AcDbEntity
  8
0
  6
Continuous
 62
     7
370
    15
100
AcDbLine
 10
69.0311439628
 20
-7.0084260836
 30
0.0
 11
69.0311439628
 21
-17.6
 31
0.0
  0
LINE
  5
161
330
1F
100
AcDbEntity
  8
0
  6
Continuous
 62
     7
370
    15
100
AcDbLine
 10
68.6375619195
 20
7.7579287926
 30
0.0
 11
68.6375619195
 21
7.1745839783
 31
0.0
  0
LINE
  5
162
330
1F
100
AcDbEntity
  8
0
  6
Continuous
 62
     7
370
    15
100
AcDbLine
 10
46.8288997678
 20
-17.6
 30
0.0
 11
46.8288997678
 21
3.8221083591
 31
0.0
  0
LINE
  5
163
330
1F
100
AcDbEntity
  8
0
  6
Continuous
 62
     7
370
    15
100
AcDbLine
 10
51.4464605263
 20
-17.6
 30
0.0
 11
46.8288997678
 21
-17.6
 31
0.0
  0
LINE
  5
164
330
1F
100
AcDbEntity
  8
0
  6
Continuous
 62
     7
370
    15
100
AcDbLine
 10
101.0
 20
25.0
 30
0.0
 11
10.0
 21
25.0
 31
0.0
  0
ENDSEC
  0
SECTION
  2
OBJECTS
  0
DICTIONARY
  5
C
330
0
100
AcDbDictionary
281
     1
  3
ACAD_GROUP
350
D
  3
ACAD_LAYOUT
350
1A
  3
ACAD_MLINESTYLE
350
17
  3
ACAD_PLOTSETTINGS
350
19
  3
ACAD_PLOTSTYLENAME
350
E
  3
ACAD_SCALELIST
350
47
  0
DICTIONARY
  5
D
102
{ACAD_REACTORS
330
C
102
}
330
C
100
AcDbDictionary
281
     1
  0
DICTIONARY
  5
1A
102
{ACAD_REACTORS
330
C
102
}
330
C
100
AcDbDictionary
281
     1
  3
Layout1
350
1E
  3
Layout2
350
26
  3
Model
350
22
  0
DICTIONARY
  5
17
102
{ACAD_REACTORS
330
C
102
}
330
C
100
AcDbDictionary
281
     1
  3
Standard
350
18
  0
DICTIONARY
  5
19
102
{ACAD_REACTORS
330
C
102
}
330
C
100
AcDbDictionary
281
     1
  0
ACDBDICTIONARYWDFLT
  5
E
102
{ACAD_REACTORS
330
C
102
}
330
C
100
AcDbDictionary
281
     1
  3
Normal
350
F
100
AcDbDictionaryWithDefault
340
F
  0
DICTIONARY
  5
47
102
{ACAD_REACTORS
330
C
102
}
330
C
100
AcDbDictionary
281
     1
  3
A0
350
48
  3
A1
350
49
  3
A2
350
4A
  3
A3
350
4B
  3
A4
350
4C
  3
A5
350
4D
  3
A6
350
4E
  3
A7
350
4F
  3
A8
350
50
  3
A9
350
51
  3
B0
350
52
  3
B1
350
53
  3
B2
350
54
  3
B3
350
55
  3
B4
350
56
  3
B5
350
57
  3
B6
350
58
  3
B7
350
59
  3
B8
350
5A
  3
B9
350
5B
  3
C0
350
5C
  3
C1
350
5D
  3
C2
350
5E
  3
C3
350
5F
  3
C4
350
60
  3
C5
350
61
  3
C6
350
62
  3
C7
350
63
  3
C8
350
64
  3
C9
350
65
  3
D0
350
66
  3
D1
350
67
  3
D2
350
68
  0
LAYOUT
  5
1E
102
{ACAD_REACTORS
330
1A
102
}
330
1A
100
AcDbPlotSettings
  1

  2
none_device
  4

  6

 40
0.0
 41
0.0
 42
0.0
 43
0.0
 44
0.0
 45
0.0
 46
0.0
 47
0.0
 48
0.0
 49
0.0
140
0.0
141
0.0
142
1.0
143
1.0
 70
   688
 72
     1
 73
     0
 74
     5
  7

 75
    16
147
1.0
148
0.0
149
0.0
100
AcDbLayout
  1
Layout1
 70
     1
 71
     1
 10
0.0
 20
0.0
 11
420.0
 21
297.0
 12
0.0
 22
0.0
 32
0.0
 14
1.0000000000E+20
 24
1.0000000000E+20
 34
1.0000000000E+20
 15
-1.0000000000E+20
 25
-1.0000000000E+20
 35
-1.0000000000E+20
146
0.0
 13
0.0
 23
0.0
 33
0.0
 16
1.0
 26
0.0
 36
0.0
 17
0.0
 27
1.0
 37
0.0
 76
     0
330
1B
  0
LAYOUT
  5
26
102
{ACAD_REACTORS
330
1A
102
}
330
1A
100
AcDbPlotSettings
  1

  2
none_device
  4

  6

 40
0.0
 41
0.0
 42
0.0
 43
0.0
 44
0.0
 45
0.0
 46
0.0
 47
0.0
 48
0.0
 49
0.0
140
0.0
141
0.0
142
1.0
143
1.0
 70
   688
 72
     1
 73
     0
 74
     5
  7

 75
    16
147
1.0
148
0.0
149
0.0
100
AcDbLayout
  1
Layout2
 70
     1
 71
     2
 10
0.0
 20
0.0
 11
0.0
 21
0.0
 12
0.0
 22
0.0
 32
0.0
 14
0.0
 24
0.0
 34
0.0
 15
0.0
 25
0.0
 35
0.0
146
0.0
 13
0.0
 23
0.0
 33
0.0
 16
1.0
 26
0.0
 36
0.0
 17
0.0
 27
1.0
 37
0.0
 76
     0
330
23
  0
LAYOUT
  5
22
102
{ACAD_REACTORS
330
1A
102
}
330
1A
100
AcDbPlotSettings
  1

  2
none_device
  4
ANSI_A_(11.00_x_8.50_Inches)
  6

 40
6.35
 41
19.05
 42
6.35000508
 43
19.05000254
 44
279.4
 45
215.9
 46
133.34999746
 47
88.89999873
 48
0.0
 49
0.0
140
0.0
141
0.0
142
0.0539108911
143
1.0
 70
  1696
 72
     0
 73
     0
 74
     0
  7

 75
     0
147
0.0179189148
148
-1300.4909072572
149
0.0
100
AcDbLayout
  1
Model
 70
     1
 71
     0
 10
0.0
 20
0.0
 11
420.0
 21
297.0
 12
0.0
 22
0.0
 32
0.0
 14
-101.0
 24
-31.0
 34
0.0
 15
101.0
 25
31.0
 35
0.0
146
0.0
 13
0.0
 23
0.0
 33
0.0
 16
1.0
 26
0.0
 36
0.0
 17
0.0
 27
1.0
 37
0.0
 76
     0
330
1F
331
29
  0
MLINESTYLE
  5
18
102
{ACAD_REACTORS
330
17
102
}
330
17
100
AcDbMlineStyle
  2
Standard
 70
     0
  3

 62
   256
 51
90.0
 52
90.0
 71
     2
 49
0.5
 62
   256
  6
BYLAYER
 49
-0.5
 62
   256
  6
BYLAYER
  0
ACDBPLACEHOLDER
  5
F
102
{ACAD_REACTORS
330
E
102
}
330
E
  0
SCALE
  5
48
102
{ACAD_REACTORS
330
47
102
}
330
47
100
AcDbScale
 70
     0
300
1:1
140
1.0
141
1.0
290
     1
  0
SCALE
  5
49
102
{ACAD_REACTORS
330
47
102
}
330
47
100
AcDbScale
 70
     0
300
1:2
140
1.0
141
2.0
290
     0
  0
SCALE
  5
4A
102
{ACAD_REACTORS
330
47
102
}
330
47
100
AcDbScale
 70
     0
300
1:4
140
1.0
141
4.0
290
     0
  0
SCALE
  5
4B
102
{ACAD_REACTORS
330
47
102
}
330
47
100
AcDbScale
 70
     0
300
1:5
140
1.0
141
5.0
290
     0
  0
SCALE
  5
4C
102
{ACAD_REACTORS
330
47
102
}
330
47
100
AcDbScale
 70
     0
300
1:8
140
1.0
141
8.0
290
     0
  0
SCALE
  5
4D
102
{ACAD_REACTORS
330
47
102
}
330
47
100
AcDbScale
 70
     0
300
1:10
140
1.0
141
10.0
290
     0
  0
SCALE
  5
4E
102
{ACAD_REACTORS
330
47
102
}
330
47
100
AcDbScale
 70
     0
300
1:16
140
1.0
141
16.0
290
     0
  0
SCALE
  5
4F
102
{ACAD_REACTORS
330
47
102
}
330
47
100
AcDbScale
 70
     0
300
1:20
140
1.0
141
20.0
290
     0
  0
SCALE
  5
50
102
{ACAD_REACTORS
330
47
102
}
330
47
100
AcDbScale
 70
     0
300
1:30
140
1.0
141
30.0
290
     0
  0
SCALE
  5
51
102
{ACAD_REACTORS
330
47
102
}
330
47
100
AcDbScale
 70
     0
300
1:40
140
1.0
141
40.0
290
     0
  0
SCALE
  5
52
102
{ACAD_REACTORS
330
47
102
}
330
47
100
AcDbScale
 70
     0
300
1:50
140
1.0
141
50.0
290
     0
  0
SCALE
  5
53
102
{ACAD_REACTORS
330
47
102
}
330
47
100
AcDbScale
 70
     0
300
1:100
140
1.0
141
100.0
290
     0
  0
SCALE
  5
54
102
{ACAD_REACTORS
330
47
102
}
330
47
100
AcDbScale
 70
     0
300
2:1
140
2.0
141
1.0
290
     0
  0
SCALE
  5
55
102
{ACAD_REACTORS
330
47
102
}
330
47
100
AcDbScale
 70
     0
300
4:1
140
4.0
141
1.0
290
     0
  0
SCALE
  5
56
102
{ACAD_REACTORS
330
47
102
}
330
47
100
AcDbScale
 70
     0
300
8:1
140
8.0
141
1.0
290
     0
  0
SCALE
  5
57
102
{ACAD_REACTORS
330
47
102
}
330
47
100
AcDbScale
 70
     0
300
10:1
140
10.0
141
1.0
290
     0
  0
SCALE
  5
58
102
{ACAD_REACTORS
330
47
102
}
330
47
100
AcDbScale
 70
     0
300
100:1
140
100.0
141
1.0
290
     0
  0
SCALE
  5
59
102
{ACAD_REACTORS
330
47
102
}
330
47
100
AcDbScale
 70
     0
300
1/128" = 1'-0"
140
0.0078125
141
12.0
290
     0
  0
SCALE
  5
5A
102
{ACAD_REACTORS
330
47
102
}
330
47
100
AcDbScale
 70
     0
300
1/64" = 1'-0"
140
0.015625
141
12.0
290
     0
  0
SCALE
  5
5B
102
{ACAD_REACTORS
330
47
102
}
330
47
100
AcDbScale
 70
     0
300
1/32" = 1'-0"
140
0.03125
141
12.0
290
     0
  0
SCALE
  5
5C
102
{ACAD_REACTORS
330
47
102
}
330
47
100
AcDbScale
 70
     0
300
1/16" = 1'-0"
140
0.0625
141
12.0
290
     0
  0
SCALE
  5
5D
102
{ACAD_REACTORS
330
47
102
}
330
47
100
AcDbScale
 70
     0
300
3/32" = 1'-0"
140
0.09375
141
12.0
290
     0
  0
SCALE
  5
5E
102
{ACAD_REACTORS
330
47
102
}
330
47
100
AcDbScale
 70
     0
300
1/8" = 1'-0"
140
0.125
141
12.0
290
     0
  0
SCALE
  5
5F
102
{ACAD_REACTORS
330
47
102
}
330
47
100
AcDbScale
 70
     0
300
3/16" = 1'-0"
140
0.1875
141
12.0
290
     0
  0
SCALE
  5
60
102
{ACAD_REACTORS
330
47
102
}
330
47
100
AcDbScale
 70
     0
300
1/4" = 1'-0"
140
0.25
141
12.0
290
     0
  0
SCALE
  5
61
102
{ACAD_REACTORS
330
47
102
}
330
47
100
AcDbScale
 70
     0
300
3/8" = 1'-0"
140
0.375
141
12.0
290
     0
  0
SCALE
  5
62
102
{ACAD_REACTORS
330
47
102
}
330
47
100
AcDbScale
 70
     0
300
1/2" = 1'-0"
140
0.5
141
12.0
290
     0
  0
SCALE
  5
63
102
{ACAD_REACTORS
330
47
102
}
330
47
100
AcDbScale
 70
     0
300
3/4" = 1'-0"
140
0.75
141
12.0
290
     0
  0
SCALE
  5
64
102
{ACAD_REACTORS
330
47
102
}
330
47
100
AcDbScale
 70
     0
300
1" = 1'-0"
140
1.0
141
12.0
290
     0
  0
SCALE
  5
65
102
{ACAD_REACTORS
330
47
102
}
330
47
100
AcDbScale
 70
     0
300
1-1/2" = 1'-0"
140
1.5
141
12.0
290
     0
  0
SCALE
  5
66
102
{ACAD_REACTORS
330
47
102
}
330
47
100
AcDbScale
 70
     0
300
3" = 1'-0"
140
3.0
141
12.0
290
     0
  0
SCALE
  5
67
102
{ACAD_REACTORS
330
47
102
}
330
47
100
AcDbScale
 70
     0
300
6" = 1'-0"
140
6.0
141
12.0
290
     0
  0
SCALE
  5
68
102
{ACAD_REACTORS
330
47
102
}
330
47
100
AcDbScale
 70
     0
300
1'-0" = 1'-0"
140
12.0
141
12.0
290
     0
  0
ENDSEC
  0
EOF
